<svg width="331" height="327" viewBox="0 0 331 327" fill="none" xmlns="http://www.w3.org/2000/svg">
<path d="M167.41 326.311C252.313 326.311 321.14 257.511 321.14 172.642C321.14 87.7727 252.313 18.9727 167.41 18.9727C82.5077 18.9727 13.6807 87.7727 13.6807 172.642C13.6807 257.511 82.5077 326.311 167.41 326.311Z" fill="url(#paint0_linear_837_5371)"/>
<path d="M250.346 54.73H80.0464C69.4313 54.73 60.8262 63.3318 60.8262 73.9426H269.566C269.566 63.3318 260.961 54.73 250.346 54.73Z" fill="url(#paint1_linear_837_5371)"/>
<path d="M60.8262 73.4185H269.566V232.336C269.566 239.402 266.759 246.178 261.76 251.174C256.762 256.17 249.984 258.977 242.915 258.977H87.4774C80.4091 258.977 73.6302 256.17 68.6321 251.174C63.6341 246.178 60.8262 239.402 60.8262 232.336V73.4185Z" fill="url(#paint2_linear_837_5371)"/>
<path d="M233.685 93.4912H96.7745C93.9232 93.4912 91.6118 95.7992 91.6118 98.6462C91.6118 101.493 93.9232 103.801 96.7745 103.801H233.685C236.536 103.801 238.847 101.493 238.847 98.6462C238.847 95.7992 236.536 93.4912 233.685 93.4912Z" fill="url(#paint3_linear_837_5371)"/>
<path d="M233.685 137.294H96.7745C93.9232 137.294 91.6118 139.602 91.6118 142.449C91.6118 145.297 93.9232 147.604 96.7745 147.604H233.685C236.536 147.604 238.847 145.297 238.847 142.449C238.847 139.602 236.536 137.294 233.685 137.294Z" fill="url(#paint4_linear_837_5371)"/>
<path d="M233.685 181.098H96.7745C93.9232 181.098 91.6118 183.406 91.6118 186.253C91.6118 189.1 93.9232 191.408 96.7745 191.408H233.685C236.536 191.408 238.847 189.1 238.847 186.253C238.847 183.406 236.536 181.098 233.685 181.098Z" fill="url(#paint5_linear_837_5371)"/>
<path d="M233.685 224.901H96.7745C93.9232 224.901 91.6118 227.209 91.6118 230.056C91.6118 232.903 93.9232 235.211 96.7745 235.211H233.685C236.536 235.211 238.847 232.903 238.847 230.056C238.847 227.209 236.536 224.901 233.685 224.901Z" fill="url(#paint6_linear_837_5371)"/>
<g filter="url(#filter0_d_837_5371)">
<path d="M95.8471 171.703H22.9445C17.0877 171.703 12.3398 176.449 12.3398 182.304V286.465C12.3398 292.32 17.0877 297.066 22.9445 297.066H95.8471C101.704 297.066 106.452 292.32 106.452 286.465V182.304C106.452 176.449 101.704 171.703 95.8471 171.703Z" fill="url(#paint7_linear_837_5371)"/>
</g>
<g filter="url(#filter1_d_837_5371)">
<path d="M303.378 9H222.854C219.102 9 216.06 12.0406 216.06 15.7915V53.6248C216.06 57.3756 219.102 60.4162 222.854 60.4162H303.378C307.13 60.4162 310.172 57.3756 310.172 53.6248V15.7915C310.172 12.0406 307.13 9 303.378 9Z" fill="url(#paint8_linear_837_5371)"/>
</g>
<path d="M87.7124 223.812H31.0799C29.1729 223.812 27.627 225.357 27.627 227.264V227.275C27.627 229.181 29.1729 230.726 31.0799 230.726H87.7124C89.6194 230.726 91.1654 229.181 91.1654 227.275V227.264C91.1654 225.357 89.6194 223.812 87.7124 223.812Z" fill="url(#paint9_linear_837_5371)"/>
<path d="M87.7449 272.463H31.599C29.7084 272.463 28.1758 273.961 28.1758 275.807V275.818C28.1758 277.665 29.7084 279.162 31.599 279.162H87.7449C89.6355 279.162 91.1681 277.665 91.1681 275.818V275.807C91.1681 273.961 89.6355 272.463 87.7449 272.463Z" fill="url(#paint10_linear_837_5371)"/>
<path d="M87.7449 247.008H31.599C29.7084 247.008 28.1758 248.505 28.1758 250.352V250.363C28.1758 252.21 29.7084 253.707 31.599 253.707H87.7449C89.6355 253.707 91.1681 252.21 91.1681 250.363V250.352C91.1681 248.505 89.6355 247.008 87.7449 247.008Z" fill="url(#paint11_linear_837_5371)"/>
<path d="M51.7868 187.788H35.2373C31.5714 187.788 28.5996 190.758 28.5996 194.423V199.014C28.5996 202.678 31.5714 205.649 35.2373 205.649H51.7868C55.4527 205.649 58.4244 202.678 58.4244 199.014V194.423C58.4244 190.758 55.4527 187.788 51.7868 187.788Z" fill="url(#paint12_linear_837_5371)"/>
<path d="M235.934 42.5099C240.248 42.5099 243.745 39.0142 243.745 34.702C243.745 30.3898 240.248 26.894 235.934 26.894C231.62 26.894 228.123 30.3898 228.123 34.702C228.123 39.0142 231.62 42.5099 235.934 42.5099Z" fill="#81D5E7"/>
<path d="M263.848 42.5099C268.162 42.5099 271.659 39.0142 271.659 34.702C271.659 30.3898 268.162 26.894 263.848 26.894C259.534 26.894 256.037 30.3898 256.037 34.702C256.037 39.0142 259.534 42.5099 263.848 42.5099Z" fill="#81D5E7"/>
<path d="M291.762 42.5099C296.076 42.5099 299.573 39.0142 299.573 34.702C299.573 30.3898 296.076 26.894 291.762 26.894C287.448 26.894 283.951 30.3898 283.951 34.702C283.951 39.0142 287.448 42.5099 291.762 42.5099Z" fill="#81D5E7"/>
<path d="M155.06 276.621C155.578 274.478 158.627 274.478 159.145 276.621L162.277 289.591C162.462 290.357 163.06 290.955 163.827 291.14L176.798 294.27C178.942 294.787 178.942 297.837 176.798 298.355L163.827 301.485C163.06 301.67 162.462 302.268 162.277 303.034L159.145 316.004C158.627 318.147 155.578 318.147 155.06 316.004L151.928 303.034C151.743 302.268 151.145 301.67 150.379 301.485L137.408 298.355C135.263 297.837 135.263 294.787 137.408 294.27L150.379 291.14C151.145 290.955 151.743 290.357 151.928 289.591L155.06 276.621Z" fill="url(#paint13_linear_837_5371)"/>
<path d="M43.8183 19.3908C44.336 17.247 47.3852 17.247 47.9029 19.3908L51.0349 32.3604C51.22 33.1265 51.8182 33.7247 52.5844 33.9096L65.5558 37.0396C67.7001 37.557 67.7001 40.607 65.5558 41.1244L52.5844 44.2544C51.8182 44.4393 51.22 45.0374 51.0349 45.8036L47.9029 58.7731C47.3852 60.9169 44.336 60.9169 43.8183 58.7731L40.6863 45.8036C40.5012 45.0374 39.903 44.4393 39.1368 44.2544L26.1654 41.1244C24.0211 40.607 24.0211 37.557 26.1654 37.0396L39.1368 33.9096C39.903 33.7247 40.5012 33.1265 40.6863 32.3604L43.8183 19.3908Z" fill="url(#paint14_linear_837_5371)"/>
<path fill-rule="evenodd" clip-rule="evenodd" d="M161.282 23.8349C163.874 23.8349 165.975 21.7345 165.975 19.1435C165.975 16.5526 163.874 14.4521 161.282 14.4521C158.69 14.4521 156.588 16.5526 156.588 19.1435C156.588 21.7345 158.69 23.8349 161.282 23.8349ZM161.282 27.3535C165.818 27.3535 169.495 23.6778 169.495 19.1435C169.495 14.6093 165.818 10.9336 161.282 10.9336C156.746 10.9336 153.068 14.6093 153.068 19.1435C153.068 23.6778 156.746 27.3535 161.282 27.3535Z" fill="url(#paint15_linear_837_5371)"/>
<path d="M306.963 152.019C306.629 150.713 307.835 149.536 309.133 149.901L322.858 153.756C324.155 154.121 324.572 155.753 323.607 156.694L313.405 166.647C312.44 167.589 310.818 167.133 310.485 165.827L306.963 152.019Z" fill="url(#paint16_linear_837_5371)"/>
<path d="M33.0586 132.622C34.3653 132.29 35.5407 133.497 35.1743 134.794L31.2998 148.508C30.9335 149.805 29.3001 150.219 28.3597 149.253L18.4157 139.042C17.4753 138.077 17.9333 136.456 19.24 136.124L33.0586 132.622Z" fill="url(#paint17_linear_837_5371)"/>
<path d="M256.883 294.729C258.19 294.398 259.365 295.605 258.999 296.902L255.124 310.616C254.758 311.913 253.124 312.327 252.184 311.361L242.24 301.15C241.3 300.185 241.758 298.564 243.064 298.232L256.883 294.729Z" fill="url(#paint18_linear_837_5371)"/>
<path fill-rule="evenodd" clip-rule="evenodd" d="M318.092 92.1626C320.684 92.1626 322.785 90.0622 322.785 87.4712C322.785 84.8802 320.684 82.7798 318.092 82.7798C315.5 82.7798 313.399 84.8802 313.399 87.4712C313.399 90.0622 315.5 92.1626 318.092 92.1626ZM318.092 95.6811C322.628 95.6811 326.305 92.0054 326.305 87.4712C326.305 82.9369 322.628 79.2612 318.092 79.2612C313.556 79.2612 309.879 82.9369 309.879 87.4712C309.879 92.0054 313.556 95.6811 318.092 95.6811Z" fill="url(#paint19_linear_837_5371)"/>
<defs>
<filter id="filter0_d_837_5371" x="0.339844" y="163.703" width="124.112" height="155.363" filterUnits="userSpaceOnUse" color-interpolation-filters="sRGB">
<feFlood flood-opacity="0" result="BackgroundImageFix"/>
<feColorMatrix in="SourceAlpha" type="matrix" values="0 0 0 0 0 0 0 0 0 0 0 0 0 0 0 0 0 0 127 0" result="hardAlpha"/>
<feOffset dx="3" dy="7"/>
<feGaussianBlur stdDeviation="7.5"/>
<feComposite in2="hardAlpha" operator="out"/>
<feColorMatrix type="matrix" values="0 0 0 0 0.104618 0 0 0 0 0.465612 0 0 0 0 0.545833 0 0 0 0.15 0"/>
<feBlend mode="normal" in2="BackgroundImageFix" result="effect1_dropShadow_837_5371"/>
<feBlend mode="normal" in="SourceGraphic" in2="effect1_dropShadow_837_5371" result="shape"/>
</filter>
<filter id="filter1_d_837_5371" x="209.06" y="0" width="120.112" height="77.416" filterUnits="userSpaceOnUse" color-interpolation-filters="sRGB">
<feFlood flood-opacity="0" result="BackgroundImageFix"/>
<feColorMatrix in="SourceAlpha" type="matrix" values="0 0 0 0 0 0 0 0 0 0 0 0 0 0 0 0 0 0 127 0" result="hardAlpha"/>
<feOffset dx="6" dy="4"/>
<feGaussianBlur stdDeviation="6.5"/>
<feComposite in2="hardAlpha" operator="out"/>
<feColorMatrix type="matrix" values="0 0 0 0 0.104618 0 0 0 0 0.465612 0 0 0 0 0.545833 0 0 0 0.09 0"/>
<feBlend mode="normal" in2="BackgroundImageFix" result="effect1_dropShadow_837_5371"/>
<feBlend mode="normal" in="SourceGraphic" in2="effect1_dropShadow_837_5371" result="shape"/>
</filter>
<linearGradient id="paint0_linear_837_5371" x1="166.225" y1="-31.0658" x2="169.372" y2="508.597" gradientUnits="userSpaceOnUse">
<stop stop-color="white" stop-opacity="0"/>
<stop offset="1" stop-color="#8EE2F4"/>
</linearGradient>
<linearGradient id="paint1_linear_837_5371" x1="60.5898" y1="59.164" x2="269.67" y2="73.9126" gradientUnits="userSpaceOnUse">
<stop stop-color="#90E3F5"/>
<stop offset="1" stop-color="#65C8DE"/>
</linearGradient>
<linearGradient id="paint2_linear_837_5371" x1="54.5586" y1="212.565" x2="356.118" y2="217.928" gradientUnits="userSpaceOnUse">
<stop stop-color="white"/>
<stop offset="1" stop-color="#BCF3FF"/>
</linearGradient>
<linearGradient id="paint3_linear_837_5371" x1="85.3846" y1="103.376" x2="247.556" y2="103.376" gradientUnits="userSpaceOnUse">
<stop stop-color="#65C8DE"/>
<stop offset="1" stop-color="#D2F7FF"/>
</linearGradient>
<linearGradient id="paint4_linear_837_5371" x1="85.3846" y1="147.179" x2="247.556" y2="147.179" gradientUnits="userSpaceOnUse">
<stop stop-color="#65C8DE"/>
<stop offset="1" stop-color="#D2F7FF"/>
</linearGradient>
<linearGradient id="paint5_linear_837_5371" x1="85.3846" y1="190.983" x2="247.556" y2="190.983" gradientUnits="userSpaceOnUse">
<stop stop-color="#65C8DE"/>
<stop offset="1" stop-color="#D2F7FF"/>
</linearGradient>
<linearGradient id="paint6_linear_837_5371" x1="85.3846" y1="234.786" x2="247.556" y2="234.786" gradientUnits="userSpaceOnUse">
<stop stop-color="#65C8DE"/>
<stop offset="1" stop-color="#D2F7FF"/>
</linearGradient>
<linearGradient id="paint7_linear_837_5371" x1="9.51407" y1="265.71" x2="189.894" y2="280.53" gradientUnits="userSpaceOnUse">
<stop stop-color="white"/>
<stop offset="1" stop-color="#BCF3FF"/>
</linearGradient>
<linearGradient id="paint8_linear_837_5371" x1="213.234" y1="47.5559" x2="349.123" y2="51.4882" gradientUnits="userSpaceOnUse">
<stop stop-color="white"/>
<stop offset="1" stop-color="#BCF3FF"/>
</linearGradient>
<linearGradient id="paint9_linear_837_5371" x1="98.5392" y1="230.932" x2="22.1442" y2="230.932" gradientUnits="userSpaceOnUse">
<stop stop-color="#D2F7FF"/>
<stop offset="1" stop-color="#65C8DE"/>
</linearGradient>
<linearGradient id="paint10_linear_837_5371" x1="98.4786" y1="279.362" x2="22.7401" y2="279.362" gradientUnits="userSpaceOnUse">
<stop stop-color="#D2F7FF"/>
<stop offset="1" stop-color="#65C8DE"/>
</linearGradient>
<linearGradient id="paint11_linear_837_5371" x1="98.4786" y1="253.907" x2="22.7401" y2="253.907" gradientUnits="userSpaceOnUse">
<stop stop-color="#D2F7FF"/>
<stop offset="1" stop-color="#65C8DE"/>
</linearGradient>
<linearGradient id="paint12_linear_837_5371" x1="79.1056" y1="205.477" x2="24.825" y2="205.477" gradientUnits="userSpaceOnUse">
<stop offset="0.243799" stop-color="#D2F7FF"/>
<stop offset="1" stop-color="#6BCBE0"/>
</linearGradient>
<linearGradient id="paint13_linear_837_5371" x1="128.88" y1="281.157" x2="185.568" y2="281.525" gradientUnits="userSpaceOnUse">
<stop stop-color="#90E3F5"/>
<stop offset="1" stop-color="#65C8DE"/>
</linearGradient>
<linearGradient id="paint14_linear_837_5371" x1="17.6374" y1="23.9261" x2="74.3263" y2="24.2943" gradientUnits="userSpaceOnUse">
<stop stop-color="#90E3F5"/>
<stop offset="1" stop-color="#65C8DE"/>
</linearGradient>
<linearGradient id="paint15_linear_837_5371" x1="153.05" y1="14.7231" x2="169.584" y2="14.8305" gradientUnits="userSpaceOnUse">
<stop stop-color="#90E3F5"/>
<stop offset="1" stop-color="#65C8DE"/>
</linearGradient>
<linearGradient id="paint16_linear_837_5371" x1="301.58" y1="161.165" x2="318.585" y2="144.777" gradientUnits="userSpaceOnUse">
<stop stop-color="#90E3F5"/>
<stop offset="1" stop-color="#65C8DE"/>
</linearGradient>
<linearGradient id="paint17_linear_837_5371" x1="23.9153" y1="127.229" x2="40.2748" y2="144.261" gradientUnits="userSpaceOnUse">
<stop stop-color="#90E3F5"/>
<stop offset="1" stop-color="#65C8DE"/>
</linearGradient>
<linearGradient id="paint18_linear_837_5371" x1="247.74" y1="289.337" x2="264.099" y2="306.369" gradientUnits="userSpaceOnUse">
<stop stop-color="#90E3F5"/>
<stop offset="1" stop-color="#65C8DE"/>
</linearGradient>
<linearGradient id="paint19_linear_837_5371" x1="309.86" y1="83.0507" x2="326.395" y2="83.1581" gradientUnits="userSpaceOnUse">
<stop stop-color="#90E3F5"/>
<stop offset="1" stop-color="#65C8DE"/>
</linearGradient>
</defs>
</svg>
