<svg width="32" height="32" viewBox="0 0 32 32" fill="none" xmlns="http://www.w3.org/2000/svg">
<path fill-rule="evenodd" clip-rule="evenodd" d="M21.4505 9.92822C20.1337 8.6115 17.9439 8.18029 16.2282 9.89605L9.09181 17.0324C8.7335 17.3907 8.15254 17.3908 7.79423 17.0325C7.43593 16.6742 7.43593 16.0932 7.79423 15.7349L14.9307 8.59852C17.5225 6.00672 20.8852 6.76794 22.748 8.63069C23.6852 9.56792 24.3271 10.8505 24.4031 12.2457C24.4803 13.6628 23.9692 15.1303 22.7158 16.3837L14.9307 24.1689C14.5148 24.5847 13.7964 25.0859 12.9458 25.2922C12.047 25.5103 10.968 25.3963 10.0649 24.4933C9.11652 23.5449 8.98036 22.4698 9.24682 21.5454C9.49078 20.6991 10.0512 20.03 10.4215 19.6597L16.4219 13.6593L17.0713 14.3074L17.72 14.9562L11.719 20.9572C11.4405 21.2357 11.129 21.641 11.01 22.0537C10.9135 22.3883 10.9235 22.7568 11.3624 23.1957C11.7261 23.5594 12.1068 23.6076 12.5132 23.509C12.9678 23.3987 13.4002 23.1043 13.6331 22.8714L21.4183 15.0862C22.3187 14.1858 22.6185 13.2204 22.5708 12.3456C22.522 11.449 22.103 10.5807 21.4505 9.92822ZM17.7201 13.6586C18.0784 14.0169 18.0783 14.5979 17.72 14.9562L17.0713 14.3074L16.4225 13.6586C16.7808 13.3003 17.3618 13.3003 17.7201 13.6586Z" fill="#858DA3"/>
</svg>
