<svg width="18" height="18" viewBox="0 0 18 18" fill="none" xmlns="http://www.w3.org/2000/svg">
<g clip-path="url(#clip0_2117_6870)">
<path d="M17.4247 16.3951L13.1406 11.9395C14.2421 10.6301 14.8457 8.98262 14.8457 7.26749C14.8457 3.26026 11.5854 0 7.57816 0C3.57093 0 0.310669 3.26026 0.310669 7.26749C0.310669 11.2747 3.57093 14.535 7.57816 14.535C9.08253 14.535 10.5161 14.0812 11.7418 13.2199L16.0584 17.7093C16.2388 17.8967 16.4815 18 16.7415 18C16.9877 18 17.2212 17.9062 17.3984 17.7355C17.7751 17.3731 17.7871 16.7721 17.4247 16.3951ZM7.57816 1.89587C10.5401 1.89587 12.9498 4.30552 12.9498 7.26749C12.9498 10.2295 10.5401 12.6391 7.57816 12.6391C4.61618 12.6391 2.20654 10.2295 2.20654 7.26749C2.20654 4.30552 4.61618 1.89587 7.57816 1.89587Z" fill="#8B919D"/>
</g>
<defs>
<clipPath id="clip0_2117_6870">
<rect width="18" height="18" fill="white"/>
</clipPath>
</defs>
</svg>
