<svg width="25" height="24" viewBox="0 0 25 24" fill="none" xmlns="http://www.w3.org/2000/svg">
<path d="M12.68 16.25C10.1239 16.25 8.0459 14.12 8.0459 11.5V6C8.0459 3.38 10.1239 1.25 12.68 1.25C15.2361 1.25 17.3142 3.38 17.3142 6V11.5C17.3142 14.12 15.2361 16.25 12.68 16.25ZM12.68 2.75C10.9337 2.75 9.50931 4.21 9.50931 6V11.5C9.50931 13.29 10.9337 14.75 12.68 14.75C14.4264 14.75 15.8508 13.29 15.8508 11.5V6C15.8508 4.21 14.4264 2.75 12.68 2.75Z" fill="#858DA3"/>
<path d="M12.6795 19.75C8.16242 19.75 4.48438 15.98 4.48438 11.35V9.65002C4.48438 9.24002 4.81608 8.90002 5.21608 8.90002C5.61608 8.90002 5.94779 9.24002 5.94779 9.65002V11.35C5.94779 15.15 8.97218 18.25 12.6795 18.25C16.3868 18.25 19.4112 15.15 19.4112 11.35V9.65002C19.4112 9.24002 19.7429 8.90002 20.1429 8.90002C20.5429 8.90002 20.8746 9.24002 20.8746 9.65002V11.35C20.8746 15.98 17.1966 19.75 12.6795 19.75Z" fill="#858DA3"/>
<path d="M14.0363 7.17995C13.9583 7.17995 13.8705 7.16995 13.7827 7.13995C13.0705 6.86995 12.29 6.86995 11.5778 7.13995C11.1973 7.27995 10.7778 7.07995 10.6412 6.68995C10.5046 6.29995 10.6997 5.86995 11.0802 5.72995C12.1144 5.34995 13.2558 5.34995 14.29 5.72995C14.6705 5.86995 14.8656 6.29995 14.729 6.68995C14.6119 6.98995 14.329 7.17995 14.0363 7.17995Z" fill="#858DA3"/>
<path d="M13.4604 9.29995C13.3921 9.29995 13.3335 9.28995 13.2652 9.26995C12.875 9.15995 12.475 9.15995 12.0848 9.26995C11.6945 9.37995 11.2945 9.13995 11.1872 8.73995C11.0799 8.34995 11.314 7.93995 11.7043 7.82995C12.3384 7.64995 13.0213 7.64995 13.6555 7.82995C14.0457 7.93995 14.2799 8.34995 14.1726 8.74995C14.0848 9.07995 13.7823 9.29995 13.4604 9.29995Z" fill="#858DA3"/>
<path d="M12.6799 22.75C12.2799 22.75 11.9482 22.41 11.9482 22V19C11.9482 18.59 12.2799 18.25 12.6799 18.25C13.0799 18.25 13.4117 18.59 13.4117 19V22C13.4117 22.41 13.0799 22.75 12.6799 22.75Z" fill="#858DA3"/>
</svg>
