<svg width="20" height="20" viewBox="0 0 20 20" fill="none" xmlns="http://www.w3.org/2000/svg">
<path d="M14.9837 8.99167V12.325C14.9837 12.5417 14.9753 12.75 14.9503 12.95C14.7587 15.2 13.4337 16.3167 10.992 16.3167H10.6587C10.4503 16.3167 10.2503 16.4167 10.1253 16.5833L9.12534 17.9167C8.68367 18.5083 7.96699 18.5083 7.52532 17.9167L6.52531 16.5833C6.41698 16.4417 6.17533 16.3167 5.99199 16.3167H5.65867C3.00033 16.3167 1.66699 15.6583 1.66699 12.325V8.99167C1.66699 6.55001 2.792 5.22501 5.03367 5.03334C5.23367 5.00834 5.442 5 5.65867 5H10.992C13.6503 5 14.9837 6.33334 14.9837 8.99167Z" stroke="#1C4FD1" stroke-width="1.5" stroke-miterlimit="10" stroke-linecap="round" stroke-linejoin="round"/>
<path d="M18.3165 5.65842V8.99175C18.3165 11.4418 17.1915 12.7584 14.9499 12.9501C14.9749 12.7501 14.9832 12.5418 14.9832 12.3251V8.99175C14.9832 6.33342 13.6499 5.00008 10.9915 5.00008H5.6582C5.44154 5.00008 5.2332 5.00842 5.0332 5.03342C5.22487 2.79176 6.54987 1.66675 8.99154 1.66675H14.3249C16.9832 1.66675 18.3165 3.00009 18.3165 5.65842Z" stroke="#1C4FD1" stroke-width="1.5" stroke-miterlimit="10" stroke-linecap="round" stroke-linejoin="round"/>
<path d="M11.2459 11.0417H11.2534" stroke="#1C4FD1" stroke-width="2" stroke-linecap="round" stroke-linejoin="round"/>
<path d="M8.32991 11.0417H8.33741" stroke="#1C4FD1" stroke-width="2" stroke-linecap="round" stroke-linejoin="round"/>
<path d="M5.41292 11.0417H5.42042" stroke="#1C4FD1" stroke-width="2" stroke-linecap="round" stroke-linejoin="round"/>
</svg>
