<svg width="139" height="40" viewBox="0 0 139 40" fill="none" xmlns="http://www.w3.org/2000/svg">
<path d="M133.812 1H4.1875C2.42709 1 1 2.34315 1 4V36C1 37.6569 2.42709 39 4.1875 39H133.812C135.573 39 137 37.6569 137 36V4C137 2.34315 135.573 1 133.812 1Z" stroke="#F7F7F7" stroke-width="2"/>
<path fill-rule="evenodd" clip-rule="evenodd" d="M32.682 10.0616C32.903 10.0179 33.1048 10.186 33.1013 10.4114C33.0855 11.4298 32.7228 12.4172 32.0665 13.2061C31.7101 13.65 31.2578 14.0071 30.7435 14.2506C30.3414 14.441 29.9096 14.558 29.4684 14.5971C29.26 14.6156 29.0853 14.45 29.0899 14.2408C29.0995 13.8067 29.1754 13.3759 29.3155 12.9635C29.4955 12.4337 29.778 11.9447 30.1468 11.5244C30.8103 10.7676 31.7028 10.2554 32.682 10.0616ZM34.9456 18.5848C34.5735 19.2438 34.3636 20.0001 34.3636 20.7445C34.3645 21.5968 34.615 22.43 35.0838 23.1402C35.3859 23.5978 35.7701 23.9913 36.2141 24.3022C36.6334 24.5957 36.8913 25.112 36.698 25.5859C36.4162 26.2765 36.0577 26.934 35.6287 27.5455C34.821 28.7601 33.9741 29.9467 32.6299 29.9686C31.9906 29.9834 31.5591 29.7986 31.1094 29.6061C30.6404 29.4052 30.1517 29.196 29.3868 29.196C28.5757 29.196 28.0651 29.412 27.5726 29.6203C27.147 29.8004 26.7349 29.9747 26.1543 29.9989C24.8741 30.0466 23.8958 28.7026 23.0587 27.4994C21.3856 25.0423 20.0828 20.5749 21.8294 17.5352C22.2326 16.8069 22.8166 16.1959 23.5246 15.762C24.2325 15.328 25.0402 15.0857 25.8689 15.0588C26.595 15.0438 27.2917 15.3251 27.9024 15.5717H27.9025C28.3696 15.7603 28.7865 15.9286 29.1278 15.9286C29.4787 15.9286 29.9285 15.7524 30.4396 15.5523C31.199 15.2549 32.0936 14.9045 33 15.0001C33.849 15.0897 34.2943 15.2275 34.92 15.5675C35.2354 15.7389 35.5286 15.9464 35.7941 16.1851C36.2208 16.5687 36.0708 17.2236 35.6668 17.6311C35.3862 17.9141 35.1434 18.2346 34.9456 18.5848ZM52.072 17.0242H52.624V15.2962H51.824V10.4002H48.488C48.4933 11.2162 48.4613 11.9202 48.392 12.5122C48.3227 13.1042 48.2373 13.5975 48.136 13.9922C48.04 14.3815 47.9413 14.6829 47.84 14.8962C47.744 15.1042 47.672 15.2375 47.624 15.2962H47V17.0242H47.552L47.68 16.0002H51.936L52.072 17.0242ZM51.024 11.1042V15.2962H48.472C48.5627 15.1309 48.648 14.9255 48.728 14.6802C48.8133 14.4349 48.888 14.1415 48.952 13.8002C49.0213 13.4588 49.0773 13.0669 49.12 12.6242C49.168 12.1762 49.2027 11.6695 49.224 11.1042H51.024ZM53.2791 12.9762C53.1885 13.2482 53.1431 13.5575 53.1431 13.9042C53.1431 14.2189 53.1831 14.5122 53.2631 14.7842C53.3485 15.0509 53.4738 15.2829 53.6391 15.4802C53.8098 15.6775 54.0231 15.8322 54.2791 15.9442C54.5351 16.0562 54.8391 16.1122 55.1911 16.1122C55.5111 16.1122 55.7965 16.0615 56.0471 15.9602C56.3031 15.8589 56.5165 15.7122 56.6871 15.5202C56.8631 15.3282 56.9965 15.0962 57.0871 14.8242C57.1831 14.5522 57.2311 14.2455 57.2311 13.9042C57.2311 13.5842 57.1885 13.2909 57.1031 13.0242C57.0231 12.7522 56.8978 12.5175 56.7271 12.3202C56.5565 12.1175 56.3431 11.9602 56.0871 11.8482C55.8311 11.7362 55.5325 11.6802 55.1911 11.6802C54.8658 11.6802 54.5751 11.7309 54.3191 11.8322C54.0685 11.9335 53.8551 12.0802 53.6791 12.2722C53.5031 12.4642 53.3698 12.6989 53.2791 12.9762ZM53.9911 14.4882C53.9485 14.2962 53.9271 14.1015 53.9271 13.9042C53.9271 13.3655 54.0338 12.9655 54.2471 12.7042C54.4658 12.4375 54.7831 12.3042 55.1991 12.3042C55.4231 12.3042 55.6151 12.3495 55.7751 12.4402C55.9351 12.5309 56.0631 12.6509 56.1591 12.8002C56.2605 12.9442 56.3325 13.1122 56.3751 13.3042C56.4231 13.4962 56.4471 13.6962 56.4471 13.9042C56.4471 14.9602 56.0311 15.4882 55.1991 15.4882C54.9645 15.4882 54.7671 15.4429 54.6071 15.3522C54.4471 15.2615 54.3165 15.1415 54.2151 14.9922C54.1138 14.8429 54.0391 14.6748 53.9911 14.4882ZM61.582 15.7122C61.3953 15.8455 61.1767 15.9442 60.926 16.0082C60.6753 16.0775 60.4113 16.1122 60.134 16.1122C59.782 16.1122 59.4807 16.0589 59.23 15.9522C58.9847 15.8455 58.7847 15.6962 58.63 15.5042C58.4753 15.3122 58.3633 15.0802 58.294 14.8082C58.2247 14.5362 58.19 14.2349 58.19 13.9042C58.19 13.1948 58.3607 12.6482 58.702 12.2642C59.0487 11.8749 59.5447 11.6802 60.19 11.6802C60.4727 11.6802 60.718 11.7069 60.926 11.7602C61.134 11.8082 61.3207 11.8695 61.486 11.9442L61.294 12.5442C61.15 12.4695 60.9927 12.4108 60.822 12.3682C60.6567 12.3255 60.4753 12.3042 60.278 12.3042C59.4087 12.3042 58.974 12.8375 58.974 13.9042C58.974 14.1069 58.998 14.3042 59.046 14.4962C59.094 14.6829 59.1713 14.8509 59.278 15.0002C59.3847 15.1442 59.5233 15.2615 59.694 15.3522C59.87 15.4429 60.0833 15.4882 60.334 15.4882C60.558 15.4882 60.7527 15.4588 60.918 15.4002C61.0887 15.3362 61.23 15.2615 61.342 15.1762L61.582 15.7122ZM64.0114 12.4242H65.4674V11.8002H61.8194V12.4242H63.2754V16.0002H64.0114V12.4242ZM67.4758 14.4562L67.7238 15.2642H67.8278L68.0278 14.4482L68.8998 11.8002H69.6518L68.2758 15.6002C68.1745 15.8615 68.0705 16.1149 67.9638 16.3602C67.8625 16.6055 67.7478 16.8215 67.6198 17.0082C67.4971 17.2002 67.3585 17.3522 67.2038 17.4642C67.0545 17.5815 66.8811 17.6402 66.6838 17.6402C66.4705 17.6402 66.2891 17.6162 66.1398 17.5682L66.2598 16.9442C66.3398 16.9709 66.4198 16.9842 66.4998 16.9842C66.6065 16.9842 66.7025 16.9709 66.7878 16.9442C66.8785 16.9175 66.9611 16.8695 67.0358 16.8002C67.1105 16.7309 67.1771 16.6322 67.2358 16.5042C67.2998 16.3815 67.3585 16.2215 67.4118 16.0242L65.5318 11.8002H66.4038L67.4758 14.4562ZM71.1578 12.4242H73.2218V16.0002H73.9578V11.8002H70.4218V16.0002H71.1578V12.4242ZM78.2151 14.1682H76.1031V16.0002H75.3671V11.8002H76.1031V13.5122H78.2151V11.8002H78.9511V16.0002H78.2151V14.1682ZM80.2713 12.9762C80.1806 13.2482 80.1353 13.5575 80.1353 13.9042C80.1353 14.2189 80.1753 14.5122 80.2553 14.7842C80.3406 15.0509 80.466 15.2829 80.6313 15.4802C80.802 15.6775 81.0153 15.8322 81.2713 15.9442C81.5273 16.0562 81.8313 16.1122 82.1833 16.1122C82.5033 16.1122 82.7886 16.0615 83.0393 15.9602C83.2953 15.8589 83.5086 15.7122 83.6793 15.5202C83.8553 15.3282 83.9886 15.0962 84.0793 14.8242C84.1753 14.5522 84.2233 14.2455 84.2233 13.9042C84.2233 13.5842 84.1806 13.2909 84.0953 13.0242C84.0153 12.7522 83.89 12.5175 83.7193 12.3202C83.5486 12.1175 83.3353 11.9602 83.0793 11.8482C82.8233 11.7362 82.5246 11.6802 82.1833 11.6802C81.858 11.6802 81.5673 11.7309 81.3113 11.8322C81.0606 11.9335 80.8473 12.0802 80.6713 12.2722C80.4953 12.4642 80.362 12.6989 80.2713 12.9762ZM80.9833 14.4882C80.9406 14.2962 80.9193 14.1015 80.9193 13.9042C80.9193 13.3655 81.026 12.9655 81.2393 12.7042C81.458 12.4375 81.7753 12.3042 82.1913 12.3042C82.4153 12.3042 82.6073 12.3495 82.7673 12.4402C82.9273 12.5309 83.0553 12.6509 83.1513 12.8002C83.2526 12.9442 83.3246 13.1122 83.3673 13.3042C83.4153 13.4962 83.4393 13.6962 83.4393 13.9042C83.4393 14.9602 83.0233 15.4882 82.1913 15.4882C81.9566 15.4882 81.7593 15.4429 81.5993 15.3522C81.4393 15.2615 81.3086 15.1415 81.2073 14.9922C81.106 14.8429 81.0313 14.6748 80.9833 14.4882ZM87.7343 11.8002L88.0383 11.7842C88.209 11.7735 88.3956 11.7629 88.5983 11.7522C88.801 11.7362 89.0356 11.7282 89.3023 11.7282C89.921 11.7282 90.3636 11.8162 90.6303 11.9922C90.9023 12.1629 91.0383 12.4189 91.0383 12.7602C91.0383 12.9469 90.9716 13.1362 90.8383 13.3282C90.7103 13.5149 90.505 13.6509 90.2223 13.7362V13.8242C90.5743 13.8935 90.825 14.0108 90.9743 14.1762C91.129 14.3415 91.2063 14.5602 91.2063 14.8322C91.2063 15.2535 91.033 15.5655 90.6863 15.7682C90.3396 15.9655 89.817 16.0642 89.1183 16.0642C88.8837 16.0642 88.6623 16.0562 88.4543 16.0402C88.2463 16.0295 88.0436 16.0162 87.8463 16.0002H87.7903C87.7743 15.9949 87.7556 15.9922 87.7343 15.9922V11.8002ZM88.4703 15.4242C88.5876 15.4402 88.7023 15.4535 88.8143 15.4642C88.9263 15.4695 89.065 15.4722 89.2303 15.4722C89.6516 15.4722 89.9556 15.4189 90.1423 15.3122C90.329 15.2002 90.4223 15.0189 90.4223 14.7682C90.4223 14.6669 90.4036 14.5735 90.3663 14.4882C90.329 14.4029 90.2676 14.3309 90.1823 14.2722C90.097 14.2135 89.9796 14.1682 89.8303 14.1362C89.6863 14.0989 89.5076 14.0802 89.2943 14.0802H88.4703V15.4242ZM89.3823 13.5762C89.4996 13.5762 89.6116 13.5602 89.7183 13.5282C89.825 13.4962 89.921 13.4509 90.0063 13.3922C90.0916 13.3335 90.1583 13.2669 90.2063 13.1922C90.2596 13.1122 90.2863 13.0269 90.2863 12.9362C90.2863 12.7122 90.209 12.5575 90.0543 12.4722C89.905 12.3815 89.6463 12.3362 89.2783 12.3362C89.1556 12.3362 89.0303 12.3415 88.9023 12.3522C88.7796 12.3575 88.6356 12.3629 88.4703 12.3682V13.5762H89.3823ZM80.1196 26.8672C80.345 27.0232 80.4576 27.2355 80.4576 27.5042C80.4576 27.8508 80.306 28.1065 80.0026 28.2712C79.708 28.4358 79.2746 28.5182 78.7026 28.5182C78.46 28.5182 78.2173 28.5008 77.9746 28.4662C77.7406 28.4315 77.5196 28.3882 77.3116 28.3362C77.1036 28.2755 76.913 28.2148 76.7396 28.1542C76.575 28.0935 76.445 28.0372 76.3496 27.9852L75.7126 29.6102C75.834 29.6708 75.9943 29.7358 76.1936 29.8052C76.4016 29.8658 76.64 29.9265 76.9086 29.9872C77.1773 30.0392 77.4676 30.0825 77.7796 30.1172C78.1003 30.1605 78.4383 30.1822 78.7936 30.1822C79.3223 30.1822 79.8076 30.1258 80.2496 30.0132C80.6916 29.9005 81.0686 29.7272 81.3806 29.4932C81.7013 29.2505 81.9483 28.9472 82.1216 28.5832C82.295 28.2192 82.3816 27.7858 82.3816 27.2832C82.3816 26.7805 82.269 26.3688 82.0436 26.0482C81.8183 25.7275 81.5366 25.4632 81.1986 25.2552C80.8693 25.0385 80.5096 24.8652 80.1196 24.7352C79.7296 24.5965 79.3656 24.4622 79.0276 24.3322C78.6983 24.1935 78.421 24.0462 78.1956 23.8902C77.9703 23.7255 77.8576 23.5088 77.8576 23.2402C77.8576 22.9715 77.9746 22.7635 78.2086 22.6162C78.4513 22.4602 78.7893 22.3822 79.2226 22.3822C79.4653 22.3822 79.7036 22.3995 79.9376 22.4342C80.1716 22.4602 80.3926 22.4992 80.6006 22.5512C80.8086 22.5945 80.9906 22.6508 81.1466 22.7202C81.3113 22.7808 81.4456 22.8415 81.5496 22.9022L82.1606 21.2902C81.8313 21.1082 81.4066 20.9695 80.8866 20.8742C80.3753 20.7702 79.8336 20.7182 79.2616 20.7182C78.7676 20.7182 78.3126 20.7745 77.8966 20.8872C77.4893 20.9998 77.1383 21.1688 76.8436 21.3942C76.5576 21.6108 76.3323 21.8925 76.1676 22.2392C76.0116 22.5772 75.9336 22.9715 75.9336 23.4222C75.9336 23.9508 76.0463 24.3798 76.2716 24.7092C76.497 25.0385 76.7743 25.3115 77.1036 25.5282C77.4416 25.7448 77.8056 25.9182 78.1956 26.0482C78.5856 26.1782 78.9453 26.3082 79.2746 26.4382C79.6126 26.5682 79.8943 26.7112 80.1196 26.8672ZM48.924 30.0002L49.665 28.0632H52.733L53.513 30.0002H55.554L51.979 20.8352H50.562L47 30.0002H48.924ZM52.278 26.5422H50.198L50.887 24.6572L51.199 23.2012H51.264L51.576 24.6442L52.278 26.5422ZM57.7926 23.1752H56.4926V32.5872H58.3126V29.8962C58.5293 29.9915 58.746 30.0652 58.9626 30.1172C59.1793 30.1778 59.435 30.2082 59.7296 30.2082C60.2756 30.2082 60.7566 30.1215 61.1726 29.9482C61.5973 29.7662 61.9526 29.5105 62.2386 29.1812C62.5246 28.8432 62.7413 28.4445 62.8886 27.9852C63.036 27.5172 63.1096 26.9972 63.1096 26.4252C63.1096 25.2292 62.88 24.3582 62.4206 23.8122C61.9613 23.2575 61.2723 22.9802 60.3536 22.9802C59.877 22.9802 59.461 23.0668 59.1056 23.2402C58.7503 23.4135 58.4383 23.6735 58.1696 24.0202H58.0136L57.7926 23.1752ZM58.8326 24.7872C59.058 24.5965 59.3786 24.5012 59.7946 24.5012C60.3146 24.5012 60.683 24.6702 60.8996 25.0082C61.125 25.3375 61.2376 25.7925 61.2376 26.3732C61.2376 27.1792 61.0946 27.7685 60.8086 28.1412C60.5226 28.5052 60.085 28.6872 59.4956 28.6872C59.2183 28.6872 58.9886 28.6525 58.8066 28.5832C58.6246 28.5138 58.46 28.4185 58.3126 28.2972V25.6452C58.434 25.2552 58.6073 24.9692 58.8326 24.7872ZM64.5923 23.1752H65.8923L66.1133 24.0202H66.2692C66.5379 23.6735 66.8499 23.4135 67.2052 23.2402C67.5606 23.0668 67.9766 22.9802 68.4533 22.9802C69.3719 22.9802 70.0609 23.2575 70.5202 23.8122C70.9796 24.3582 71.2093 25.2292 71.2093 26.4252C71.2093 26.9972 71.1356 27.5172 70.9883 27.9852C70.8409 28.4445 70.6243 28.8432 70.3382 29.1812C70.0522 29.5105 69.6969 29.7662 69.2722 29.9482C68.8562 30.1215 68.3753 30.2082 67.8293 30.2082C67.5346 30.2082 67.2789 30.1778 67.0622 30.1172C66.8456 30.0652 66.6289 29.9915 66.4123 29.8962V32.5872H64.5923V23.1752ZM67.8942 24.5012C67.4782 24.5012 67.1576 24.5965 66.9323 24.7872C66.7069 24.9692 66.5336 25.2552 66.4123 25.6452V28.2972C66.5596 28.4185 66.7243 28.5138 66.9062 28.5832C67.0882 28.6525 67.3179 28.6872 67.5952 28.6872C68.1846 28.6872 68.6223 28.5052 68.9082 28.1412C69.1943 27.7685 69.3372 27.1792 69.3372 26.3732C69.3372 25.7925 69.2246 25.3375 68.9993 25.0082C68.7826 24.6702 68.4143 24.5012 67.8942 24.5012ZM82.9302 23.1752H83.9702V22.2392L85.7902 21.7582V23.1752H87.6232V24.6962H85.7902V27.0622C85.7902 27.6082 85.8422 28.0025 85.9462 28.2452C86.0588 28.4792 86.2755 28.5962 86.5962 28.5962C86.7955 28.5962 86.9645 28.5832 87.1032 28.5572C87.2418 28.5225 87.3892 28.4705 87.5452 28.4012L87.9222 29.7662C87.6448 29.8875 87.3242 29.9915 86.9602 30.0782C86.6048 30.1648 86.2582 30.2082 85.9202 30.2082C85.2442 30.2082 84.7502 30.0435 84.4382 29.7142C84.1262 29.3762 83.9702 28.8388 83.9702 28.1022V24.6962H82.9302V23.1752ZM89.4489 23.9422C88.8509 24.5835 88.5519 25.4675 88.5519 26.5942C88.5519 27.1055 88.6212 27.5822 88.7599 28.0242C88.8985 28.4575 89.1109 28.8388 89.3969 29.1682C89.6829 29.4888 90.0425 29.7402 90.4759 29.9222C90.9092 30.1042 91.4205 30.1952 92.0099 30.1952C92.5559 30.1952 93.0412 30.1128 93.4659 29.9482C93.8992 29.7835 94.2632 29.5452 94.5579 29.2332C94.8525 28.9212 95.0779 28.5442 95.2339 28.1022C95.3899 27.6515 95.4679 27.1488 95.4679 26.5942C95.4679 26.0742 95.3942 25.5975 95.2469 25.1642C95.1082 24.7222 94.8959 24.3408 94.6099 24.0202C94.3239 23.6908 93.9642 23.4352 93.5309 23.2532C93.0975 23.0712 92.5905 22.9802 92.0099 22.9802C90.9005 22.9802 90.0469 23.3008 89.4489 23.9422ZM90.5149 27.4002C90.4542 27.1488 90.4239 26.8802 90.4239 26.5942C90.4239 25.8575 90.5625 25.3245 90.8399 24.9952C91.1259 24.6658 91.5159 24.5012 92.0099 24.5012C92.2959 24.5012 92.5385 24.5532 92.7379 24.6572C92.9459 24.7612 93.1105 24.9085 93.2319 25.0992C93.3619 25.2812 93.4529 25.5022 93.5049 25.7622C93.5655 26.0135 93.5959 26.2908 93.5959 26.5942C93.5959 27.9808 93.0672 28.6742 92.0099 28.6742C91.7239 28.6742 91.4812 28.6178 91.2819 28.5052C91.0825 28.3925 90.9179 28.2452 90.7879 28.0632C90.6665 27.8725 90.5755 27.6515 90.5149 27.4002ZM100.983 24.8392C100.723 24.7525 100.463 24.7092 100.203 24.7092C99.8213 24.7092 99.5049 24.8002 99.2536 24.9822C99.0109 25.1642 98.8506 25.3938 98.7726 25.6712V30.0002H96.9526V23.1752H98.3826L98.5776 24.1242H98.7466C98.9199 23.7688 99.1496 23.4958 99.4356 23.3052C99.7303 23.1145 100.064 23.0192 100.437 23.0192C100.671 23.0192 100.939 23.0668 101.243 23.1622L100.983 24.8392ZM106.862 29.9612C107.373 29.7965 107.776 29.6015 108.071 29.3762L107.447 28.2322C107.274 28.3535 107.022 28.4748 106.693 28.5962C106.372 28.7088 106.008 28.7652 105.601 28.7652C104.925 28.7652 104.435 28.6265 104.132 28.3492C103.837 28.0632 103.668 27.6255 103.625 27.0362H108.175C108.227 26.8022 108.262 26.5768 108.279 26.3602C108.305 26.1435 108.318 25.9442 108.318 25.7622C108.318 25.2335 108.231 24.7915 108.058 24.4362C107.893 24.0722 107.672 23.7862 107.395 23.5782C107.118 23.3615 106.801 23.2098 106.446 23.1232C106.091 23.0278 105.731 22.9802 105.367 22.9802C104.249 22.9802 103.382 23.2878 102.767 23.9032C102.152 24.5098 101.844 25.4068 101.844 26.5942C101.844 27.7122 102.117 28.5918 102.663 29.2332C103.209 29.8745 104.067 30.1952 105.237 30.1952C105.818 30.1952 106.359 30.1172 106.862 29.9612ZM104.145 24.8522C104.405 24.5575 104.804 24.4102 105.341 24.4102C105.818 24.4102 106.16 24.5488 106.368 24.8262C106.576 25.1035 106.663 25.4805 106.628 25.9572H103.69C103.733 25.5065 103.885 25.1382 104.145 24.8522Z" fill="#F7F7F7"/>
</svg>
