<svg width="16" height="16" viewBox="0 0 16 16" fill="none" xmlns="http://www.w3.org/2000/svg">
<path fill-rule="evenodd" clip-rule="evenodd" d="M13.8687 6.52904C14.1922 6.20553 14.1922 5.67448 13.8687 5.35097C13.5452 5.02746 13.0141 5.02746 12.6906 5.35097L8.34396 9.69763C8.15413 9.88746 7.84519 9.88746 7.65536 9.69763L3.3087 5.35097C2.98519 5.02746 2.45413 5.02746 2.13063 5.35097C1.96482 5.51678 1.88633 5.7297 1.88633 5.94C1.88633 6.16011 1.97816 6.36597 2.12264 6.52078L2.12656 6.52498L6.47502 10.8734L6.4762 10.8746C6.88097 11.2867 7.42721 11.5067 7.99966 11.5067C8.57548 11.5067 9.12005 11.2777 9.52203 10.8757L13.8687 6.52904Z" fill="#B7BACA"/>
</svg>
