<svg width="80" height="80" viewBox="0 0 80 80" fill="none" xmlns="http://www.w3.org/2000/svg">
<circle opacity="0.06" cx="40" cy="40" r="40" fill="#18181C"/>
<path d="M40.2124 39.4933C40.1724 39.4933 40.1458 39.4933 40.1058 39.4933C40.0391 39.48 39.9458 39.48 39.8658 39.4933C35.9991 39.3733 33.0791 36.3333 33.0791 32.5866C33.0791 28.7733 36.1858 25.6666 39.9991 25.6666C43.8124 25.6666 46.9191 28.7733 46.9191 32.5866C46.9058 36.3333 43.9724 39.3733 40.2524 39.4933C40.2391 39.4933 40.2258 39.4933 40.2124 39.4933ZM39.9991 27.6666C37.2924 27.6666 35.0791 29.88 35.0791 32.5866C35.0791 35.2533 37.1591 37.4 39.8124 37.4933C39.8791 37.48 40.0658 37.48 40.2391 37.4933C42.8524 37.3733 44.9058 35.2266 44.9191 32.5866C44.9191 29.88 42.7058 27.6666 39.9991 27.6666Z" fill="#858DA3"/>
<path d="M40.2261 54.0667C37.6128 54.0667 34.9861 53.4 32.9995 52.0667C31.1461 50.84 30.1328 49.16 30.1328 47.3334C30.1328 45.5067 31.1461 43.8134 32.9995 42.5734C36.9995 39.92 43.4795 39.92 47.4528 42.5734C49.2928 43.8 50.3195 45.48 50.3195 47.3067C50.3195 49.1334 49.3061 50.8267 47.4528 52.0667C45.4528 53.4 42.8395 54.0667 40.2261 54.0667ZM34.1061 44.2534C32.8261 45.1067 32.1328 46.2 32.1328 47.3467C32.1328 48.48 32.8395 49.5734 34.1061 50.4134C37.4261 52.64 43.0261 52.64 46.3461 50.4134C47.6261 49.56 48.3195 48.4667 48.3195 47.32C48.3195 46.1867 47.6128 45.0934 46.3461 44.2534C43.0261 42.04 37.4261 42.04 34.1061 44.2534Z" fill="#858DA3"/>
</svg>
