<svg width="16" height="16" viewBox="0 0 16 16" fill="none" xmlns="http://www.w3.org/2000/svg">
<path d="M7.99992 9.44667C6.57992 9.44667 5.41992 8.29333 5.41992 6.86667C5.41992 5.44 6.57992 4.29333 7.99992 4.29333C9.41992 4.29333 10.5799 5.44667 10.5799 6.87334C10.5799 8.3 9.41992 9.44667 7.99992 9.44667ZM7.99992 5.29333C7.13326 5.29333 6.41992 6 6.41992 6.87334C6.41992 7.74667 7.12659 8.45333 7.99992 8.45333C8.87326 8.45333 9.57992 7.74667 9.57992 6.87334C9.57992 6 8.86659 5.29333 7.99992 5.29333Z" fill="#292D32"/>
<path d="M8.00012 15.1733C7.01345 15.1733 6.02012 14.8 5.24678 14.06C3.28012 12.1667 1.10678 9.14668 1.92678 5.55334C2.66678 2.29334 5.51345 0.833344 8.00012 0.833344C8.00012 0.833344 8.00012 0.833344 8.00678 0.833344C10.4935 0.833344 13.3401 2.29334 14.0801 5.56001C14.8934 9.15334 12.7201 12.1667 10.7534 14.06C9.98012 14.8 8.98678 15.1733 8.00012 15.1733ZM8.00012 1.83334C6.06012 1.83334 3.56678 2.86668 2.90678 5.77334C2.18678 8.91334 4.16012 11.62 5.94678 13.3333C7.10012 14.4467 8.90678 14.4467 10.0601 13.3333C11.8401 11.62 13.8134 8.91334 13.1068 5.77334C12.4401 2.86668 9.94012 1.83334 8.00012 1.83334Z" fill="#292D32"/>
</svg>
