<svg width="16" height="16" viewBox="0 0 16 16" fill="none" xmlns="http://www.w3.org/2000/svg">
<path d="M13.3852 15H13.2937C2.7168 14.3915 1.21505 5.46385 1.00513 2.73923C0.988212 2.52739 1.01325 2.31429 1.0788 2.11214C1.14435 1.91 1.24914 1.72278 1.38714 1.56121C1.52515 1.39965 1.69367 1.26691 1.88304 1.17061C2.07241 1.0743 2.27892 1.01633 2.49073 1H5.45657C5.67217 0.999792 5.88287 1.06435 6.06137 1.18532C6.23988 1.30628 6.37796 1.47808 6.45773 1.67846L7.27589 3.69231C7.35467 3.88806 7.37422 4.10266 7.33211 4.30943C7.29001 4.51621 7.1881 4.70605 7.03906 4.85539L5.89256 6.01308C6.07165 7.03117 6.55903 7.96967 7.28876 8.70159C8.01849 9.43352 8.95535 9.92355 9.97259 10.1054L11.1406 8.94769C11.2921 8.80024 11.4837 8.70067 11.6914 8.66141C11.8991 8.62215 12.1138 8.64494 12.3087 8.72692L14.3379 9.54C14.5352 9.62232 14.7035 9.76154 14.8214 9.9399C14.9393 10.1183 15.0015 10.3277 15 10.5415V13.3846C15 13.813 14.8298 14.2239 14.527 14.5269C14.2242 14.8298 13.8135 15 13.3852 15ZM2.61992 2.07692C2.47716 2.07692 2.34025 2.13365 2.23931 2.23464C2.13836 2.33562 2.08165 2.47258 2.08165 2.61539V2.65846C2.32925 5.84615 3.91713 13.3846 13.3529 13.9231C13.4236 13.9274 13.4945 13.9178 13.5615 13.8947C13.6284 13.8716 13.6902 13.8355 13.7432 13.7885C13.7962 13.7415 13.8394 13.6845 13.8704 13.6207C13.9013 13.5569 13.9193 13.4877 13.9234 13.4169V10.5415L11.8942 9.72846L10.3494 11.2631L10.091 11.2308C5.40812 10.6438 4.77297 5.95923 4.77297 5.91077L4.74067 5.65231L6.26934 4.10692L5.46195 2.07692H2.61992Z" fill="#1C4FD1"/>
</svg>
