<svg width="20" height="20" viewBox="0 0 20 20" fill="none" xmlns="http://www.w3.org/2000/svg">
<path d="M10.1331 9.68317C10.1081 9.68317 10.0915 9.68317 10.0665 9.68317C10.0248 9.67484 9.96647 9.67484 9.91647 9.68317C7.4998 9.60817 5.6748 7.70817 5.6748 5.3665C5.6748 2.98317 7.61647 1.0415 9.9998 1.0415C12.3831 1.0415 14.3248 2.98317 14.3248 5.3665C14.3165 7.70817 12.4831 9.60817 10.1581 9.68317C10.1498 9.68317 10.1415 9.68317 10.1331 9.68317ZM9.9998 2.2915C8.30814 2.2915 6.92481 3.67484 6.92481 5.3665C6.92481 7.03317 8.2248 8.37484 9.88314 8.43317C9.9248 8.42484 10.0415 8.42484 10.1498 8.43317C11.7831 8.35817 13.0665 7.0165 13.0748 5.3665C13.0748 3.67484 11.6915 2.2915 9.9998 2.2915Z" fill="#1C4FD1"/>
<path d="M10.1413 18.7918C8.50801 18.7918 6.86634 18.3752 5.62467 17.5418C4.46634 16.7752 3.83301 15.7252 3.83301 14.5835C3.83301 13.4418 4.46634 12.3835 5.62467 11.6085C8.12467 9.95016 12.1747 9.95016 14.658 11.6085C15.808 12.3752 16.4497 13.4252 16.4497 14.5668C16.4497 15.7085 15.8163 16.7668 14.658 17.5418C13.408 18.3752 11.7747 18.7918 10.1413 18.7918ZM6.31634 12.6585C5.51634 13.1918 5.08301 13.8752 5.08301 14.5918C5.08301 15.3002 5.52467 15.9835 6.31634 16.5085C8.39134 17.9002 11.8913 17.9002 13.9663 16.5085C14.7663 15.9752 15.1997 15.2918 15.1997 14.5752C15.1997 13.8668 14.758 13.1835 13.9663 12.6585C11.8913 11.2752 8.39134 11.2752 6.31634 12.6585Z" fill="#1C4FD1"/>
</svg>
