<svg width="20" height="20" viewBox="0 0 20 20" fill="none" xmlns="http://www.w3.org/2000/svg">
<path d="M10.0003 19.0082C9.42533 19.0082 8.88366 18.7165 8.50033 18.2082L7.25033 16.5415C7.22533 16.5082 7.12533 16.4665 7.08366 16.4582H6.66699C3.19199 16.4582 1.04199 15.5165 1.04199 10.8332V6.6665C1.04199 2.98317 2.98366 1.0415 6.66699 1.0415H13.3337C17.017 1.0415 18.9587 2.98317 18.9587 6.6665V10.8332C18.9587 14.5165 17.017 16.4582 13.3337 16.4582H12.917C12.8503 16.4582 12.792 16.4915 12.7503 16.5415L11.5003 18.2082C11.117 18.7165 10.5753 19.0082 10.0003 19.0082ZM6.66699 2.2915C3.68366 2.2915 2.29199 3.68317 2.29199 6.6665V10.8332C2.29199 14.5998 3.58366 15.2082 6.66699 15.2082H7.08366C7.50866 15.2082 7.99199 15.4498 8.25033 15.7915L9.50033 17.4582C9.79199 17.8415 10.2087 17.8415 10.5003 17.4582L11.7503 15.7915C12.0253 15.4248 12.4587 15.2082 12.917 15.2082H13.3337C16.317 15.2082 17.7087 13.8165 17.7087 10.8332V6.6665C17.7087 3.68317 16.317 2.2915 13.3337 2.2915H6.66699Z" fill="#1C4FD1"/>
<path d="M10.0003 10.0002C9.53366 10.0002 9.16699 9.62516 9.16699 9.16683C9.16699 8.7085 9.54199 8.3335 10.0003 8.3335C10.4587 8.3335 10.8337 8.7085 10.8337 9.16683C10.8337 9.62516 10.467 10.0002 10.0003 10.0002Z" fill="#1C4FD1"/>
<path d="M13.3333 10.0002C12.8667 10.0002 12.5 9.62516 12.5 9.16683C12.5 8.7085 12.875 8.3335 13.3333 8.3335C13.7917 8.3335 14.1667 8.7085 14.1667 9.16683C14.1667 9.62516 13.8 10.0002 13.3333 10.0002Z" fill="#1C4FD1"/>
<path d="M6.66634 10.0002C6.19967 10.0002 5.83301 9.62516 5.83301 9.16683C5.83301 8.7085 6.20801 8.3335 6.66634 8.3335C7.12467 8.3335 7.49967 8.7085 7.49967 9.16683C7.49967 9.62516 7.13301 10.0002 6.66634 10.0002Z" fill="#1C4FD1"/>
</svg>
