<svg width="20" height="20" viewBox="0 0 20 20" fill="none" xmlns="http://www.w3.org/2000/svg">
<path d="M6.66699 18.5998C6.43366 18.5998 6.19198 18.5415 5.97531 18.4249C5.50031 18.1749 5.20866 17.6748 5.20866 17.1415V15.9582C2.69199 15.6999 1.04199 13.8498 1.04199 11.1998V6.19987C1.04199 3.3332 2.96699 1.4082 5.83366 1.4082H14.167C17.0337 1.4082 18.9587 3.3332 18.9587 6.19987V11.1998C18.9587 14.0665 17.0337 15.9915 14.167 15.9915H11.0253L7.4753 18.3582C7.23363 18.5166 6.95033 18.5998 6.66699 18.5998ZM5.83366 2.64986C3.68366 2.64986 2.29199 4.04153 2.29199 6.19153V11.1916C2.29199 13.3416 3.68366 14.7332 5.83366 14.7332C6.17533 14.7332 6.45866 15.0166 6.45866 15.3582V17.1332C6.45866 17.2416 6.52533 17.2916 6.567 17.3166C6.60866 17.3416 6.692 17.3666 6.78367 17.3082L10.492 14.8416C10.592 14.7749 10.717 14.7332 10.842 14.7332H14.1753C16.3253 14.7332 17.717 13.3416 17.717 11.1916V6.19153C17.717 4.04153 16.3253 2.64986 14.1753 2.64986H5.83366Z" fill="#1C4FD1"/>
<path d="M9.99952 10.0916C9.65786 10.0916 9.37452 9.80822 9.37452 9.46655V9.29159C9.37452 8.32492 10.0828 7.84991 10.3495 7.66658C10.6578 7.45824 10.7578 7.31658 10.7578 7.09991C10.7578 6.68325 10.4162 6.34155 9.99952 6.34155C9.58286 6.34155 9.24121 6.68325 9.24121 7.09991C9.24121 7.44158 8.95788 7.72491 8.61621 7.72491C8.27454 7.72491 7.99121 7.44158 7.99121 7.09991C7.99121 5.99158 8.89119 5.09155 9.99952 5.09155C11.1079 5.09155 12.0078 5.99158 12.0078 7.09991C12.0078 8.04991 11.3079 8.5249 11.0495 8.6999C10.7245 8.91657 10.6245 9.05825 10.6245 9.29159V9.46655C10.6245 9.81655 10.3412 10.0916 9.99952 10.0916Z" fill="#1C4FD1"/>
<path d="M10 12.1665C9.65 12.1665 9.375 11.8832 9.375 11.5415C9.375 11.1998 9.65833 10.9165 10 10.9165C10.3417 10.9165 10.625 11.1998 10.625 11.5415C10.625 11.8832 10.35 12.1665 10 12.1665Z" fill="#1C4FD1"/>
</svg>
