<svg width="35" height="35" viewBox="0 0 35 35" fill="none" xmlns="http://www.w3.org/2000/svg">
<rect width="35" height="35" rx="17.5" fill="white"/>
<path d="M21.5655 25.1145H13.4338C11.6701 25.1145 10.2393 23.6837 10.2393 21.9199V17.1528C10.2393 15.3891 11.6701 13.9583 13.4338 13.9583H21.5655C23.3293 13.9583 24.7601 15.3891 24.7601 17.1528V18.1728C24.7601 18.4633 24.5193 18.7041 24.2288 18.7041H22.798C22.5501 18.7041 22.3234 18.7962 22.1605 18.9662L22.1534 18.9733C21.9551 19.1645 21.863 19.4266 21.8843 19.6957C21.9268 20.1632 22.373 20.5387 22.883 20.5387H24.2288C24.5193 20.5387 24.7601 20.7795 24.7601 21.0699V21.9128C24.7601 23.6837 23.3293 25.1145 21.5655 25.1145ZM13.4338 15.0208C12.258 15.0208 11.3018 15.977 11.3018 17.1528V21.9199C11.3018 23.0957 12.258 24.052 13.4338 24.052H21.5655C22.7413 24.052 23.6976 23.0957 23.6976 21.9199V21.6082H22.883C21.8134 21.6082 20.9068 20.8149 20.8218 19.7949C20.7651 19.2141 20.9776 18.6403 21.4026 18.2224C21.7709 17.847 22.2668 17.6416 22.798 17.6416H23.6976V17.1528C23.6976 15.977 22.7413 15.0208 21.5655 15.0208H13.4338Z" fill="#1C4FD1"/>
<path d="M10.7705 18.3218C10.4801 18.3218 10.2393 18.0809 10.2393 17.7905V14.5535C10.2393 13.498 10.9051 12.5418 11.8897 12.1663L17.5138 10.0413C18.0947 9.82175 18.7393 9.8997 19.2422 10.2539C19.7522 10.608 20.0497 11.1818 20.0497 11.798V14.4897C20.0497 14.7801 19.8088 15.0209 19.5184 15.0209C19.228 15.0209 18.9872 14.7801 18.9872 14.4897V11.798C18.9872 11.5289 18.8597 11.2809 18.633 11.1251C18.4063 10.9693 18.1372 10.9339 17.8822 11.033L12.258 13.158C11.6843 13.3776 11.2947 13.9372 11.2947 14.5535V17.7905C11.3018 18.088 11.0609 18.3218 10.7705 18.3218Z" fill="#1C4FD1"/>
<path d="M22.8837 21.6083C21.8142 21.6083 20.9075 20.8149 20.8225 19.7949C20.7658 19.207 20.9783 18.6333 21.4033 18.2153C21.7646 17.847 22.2604 17.6416 22.7917 17.6416H24.265C24.9662 17.6629 25.5046 18.2153 25.5046 18.8953V20.3545C25.5046 21.0345 24.9662 21.587 24.2862 21.6083H22.8837ZM24.2508 18.7041H22.7987C22.5508 18.7041 22.3242 18.7962 22.1612 18.9662C21.9558 19.1645 21.8567 19.4337 21.885 19.7028C21.9275 20.1703 22.3737 20.5458 22.8837 20.5458H24.2721C24.3642 20.5458 24.4492 20.4608 24.4492 20.3545V18.8953C24.4492 18.7891 24.3642 18.7112 24.2508 18.7041Z" fill="#1C4FD1"/>
<path d="M18.9163 18.0312H13.958C13.6676 18.0312 13.4268 17.7904 13.4268 17.5C13.4268 17.2096 13.6676 16.9688 13.958 16.9688H18.9163C19.2068 16.9688 19.4476 17.2096 19.4476 17.5C19.4476 17.7904 19.2068 18.0312 18.9163 18.0312Z" fill="#1C4FD1"/>
</svg>
