<svg width="24" height="24" viewBox="0 0 24 24" fill="none" xmlns="http://www.w3.org/2000/svg">
<path fill-rule="evenodd" clip-rule="evenodd" d="M9.79316 3.19598C9.3079 2.71072 8.51132 2.71072 8.02606 3.19598C7.54079 3.68124 7.54079 4.47782 8.02606 4.96308L14.5461 11.4831C14.8308 11.7678 14.8308 12.2312 14.5461 12.516L8.02606 19.036C7.54079 19.5212 7.54079 20.3178 8.02606 20.8031C8.27477 21.0518 8.59416 21.1695 8.90961 21.1695C9.23976 21.1695 9.54855 21.0318 9.78077 20.8151L9.78707 20.8092L16.3097 14.2865L16.3115 14.2847C16.9296 13.6776 17.2596 12.8582 17.2596 11.9995C17.2596 11.1358 16.9161 10.319 16.3132 9.71598L9.79316 3.19598Z" fill="#B7BACA"/>
</svg>
