<svg width="20" height="20" viewBox="0 0 20 20" fill="none" xmlns="http://www.w3.org/2000/svg">
<path d="M14.7171 18.8918C14.2754 18.8918 13.7088 18.7501 13.0004 18.3334L10.5088 16.8584C10.2504 16.7084 9.75042 16.7084 9.50042 16.8584L7.00042 18.3334C5.52542 19.2084 4.65876 18.8584 4.26709 18.5751C3.88376 18.2918 3.28376 17.5668 3.67542 15.9001L4.26709 13.3418C4.33376 13.0751 4.20042 12.6168 4.00042 12.4168L1.93376 10.3501C0.900424 9.31676 0.983757 8.43343 1.12542 8.0001C1.26709 7.56676 1.71709 6.8001 3.15042 6.55843L5.80876 6.11676C6.05876 6.0751 6.41709 5.80843 6.52542 5.58343L8.00042 2.64176C8.66709 1.3001 9.54209 1.1001 10.0004 1.1001C10.4588 1.1001 11.3338 1.3001 12.0004 2.64176L13.4671 5.5751C13.5838 5.8001 13.9421 6.06676 14.1921 6.10843L16.8504 6.5501C18.2921 6.79176 18.7421 7.55843 18.8754 7.99176C19.0088 8.4251 19.0921 9.30843 18.0671 10.3418L16.0004 12.4168C15.8004 12.6168 15.6754 13.0668 15.7338 13.3418L16.3254 15.9001C16.7088 17.5668 16.1171 18.2918 15.7338 18.5751C15.5254 18.7251 15.1921 18.8918 14.7171 18.8918ZM10.0004 15.4918C10.4088 15.4918 10.8171 15.5918 11.1421 15.7834L13.6338 17.2584C14.3588 17.6918 14.8171 17.6918 14.9921 17.5668C15.1671 17.4418 15.2921 17.0001 15.1088 16.1834L14.5171 13.6251C14.3588 12.9334 14.6171 12.0418 15.1171 11.5334L17.1838 9.46676C17.5921 9.05843 17.7754 8.65843 17.6921 8.38343C17.6004 8.10843 17.2171 7.88343 16.6504 7.79176L13.9921 7.3501C13.3504 7.24176 12.6504 6.7251 12.3588 6.14176L10.8921 3.20843C10.6254 2.6751 10.2921 2.35843 10.0004 2.35843C9.70876 2.35843 9.37542 2.6751 9.11709 3.20843L7.64209 6.14176C7.35042 6.7251 6.65042 7.24176 6.00876 7.3501L3.35876 7.79176C2.79209 7.88343 2.40876 8.10843 2.31709 8.38343C2.22542 8.65843 2.41709 9.06676 2.82542 9.46676L4.89209 11.5334C5.39209 12.0334 5.65042 12.9334 5.49209 13.6251L4.90042 16.1834C4.70876 17.0084 4.84209 17.4418 5.01709 17.5668C5.19209 17.6918 5.64209 17.6834 6.37542 17.2584L8.86709 15.7834C9.18376 15.5918 9.59209 15.4918 10.0004 15.4918Z" fill="#1C4FD1"/>
</svg>
