<svg width="22" height="20" viewBox="0 0 22 20" fill="none" xmlns="http://www.w3.org/2000/svg">
<path d="M18.8777 5.60833C18.8597 5.60833 18.8328 5.60833 18.8058 5.60833C14.0504 5.16667 9.30409 5 4.60268 5.44167L2.76886 5.60833C2.39131 5.64167 2.0587 5.39167 2.02275 5.04167C1.98679 4.69167 2.25647 4.39167 2.62503 4.35833L4.45885 4.19167C9.24116 3.74167 14.0864 3.91667 18.9406 4.35833C19.3092 4.39167 19.5789 4.7 19.5429 5.04167C19.5159 5.36667 19.2193 5.60833 18.8777 5.60833Z" fill="#ff3535"/>
<path d="M7.64069 4.76667C7.60473 4.76667 7.56877 4.76667 7.52382 4.75834C7.16425 4.70001 6.91255 4.37501 6.97548 4.04167L7.17324 2.95001C7.31707 2.15001 7.51483 1.04167 9.60934 1.04167H11.9645C14.068 1.04167 14.2658 2.19167 14.4006 2.95834L14.5984 4.04167C14.6613 4.38334 14.4096 4.70834 14.0501 4.75834C13.6815 4.81667 13.3309 4.58334 13.277 4.25001L13.0792 3.16667C12.9534 2.44167 12.9264 2.30001 11.9735 2.30001H9.61833C8.66547 2.30001 8.64749 2.41667 8.51265 3.15834L8.30589 4.24167C8.25196 4.55001 7.9643 4.76667 7.64069 4.76667Z" fill="#ff3535"/>
<path d="M13.6723 18.9583H7.90118C4.76391 18.9583 4.63807 17.35 4.53918 16.05L3.95488 7.65833C3.92791 7.31667 4.21557 7.01667 4.58413 6.99167C4.96168 6.975 5.27631 7.23334 5.30327 7.575L5.88758 15.9667C5.98646 17.2333 6.02242 17.7083 7.90118 17.7083H13.6723C15.5601 17.7083 15.596 17.2333 15.6859 15.9667L16.2702 7.575C16.2972 7.23334 16.6208 6.975 16.9894 6.99167C17.3579 7.01667 17.6456 7.30833 17.6186 7.65833L17.0343 16.05C16.9354 17.35 16.8096 18.9583 13.6723 18.9583Z" fill="#ff3535"/>
<path d="M12.279 14.375H9.28553C8.91696 14.375 8.61133 14.0917 8.61133 13.75C8.61133 13.4083 8.91696 13.125 9.28553 13.125H12.279C12.6475 13.125 12.9532 13.4083 12.9532 13.75C12.9532 14.0917 12.6475 14.375 12.279 14.375Z" fill="#ff3535"/>
<path d="M13.0341 11.0417H8.53943C8.17087 11.0417 7.86523 10.7583 7.86523 10.4167C7.86523 10.075 8.17087 9.79167 8.53943 9.79167H13.0341C13.4026 9.79167 13.7083 10.075 13.7083 10.4167C13.7083 10.7583 13.4026 11.0417 13.0341 11.0417Z" fill="#ff3535"/>
</svg>
