<svg width="36" height="36" viewBox="0 0 36 36" fill="none" xmlns="http://www.w3.org/2000/svg">
<circle cx="18" cy="18" r="18" fill="#1C4FD1" fill-opacity="0.1"/>
<path d="M18.1199 17.715C18.0974 17.715 18.0824 17.715 18.0599 17.715C18.0224 17.7075 17.9699 17.7075 17.9249 17.715C15.7499 17.6475 14.1074 15.9375 14.1074 13.83C14.1074 11.685 15.8549 9.9375 17.9999 9.9375C20.1449 9.9375 21.8924 11.685 21.8924 13.83C21.8849 15.9375 20.2349 17.6475 18.1424 17.715C18.1349 17.715 18.1274 17.715 18.1199 17.715ZM17.9999 11.0625C16.4774 11.0625 15.2324 12.3075 15.2324 13.83C15.2324 15.33 16.4024 16.5375 17.8949 16.59C17.9324 16.5825 18.0374 16.5825 18.1349 16.59C19.6049 16.5225 20.7599 15.315 20.7674 13.83C20.7674 12.3075 19.5224 11.0625 17.9999 11.0625Z" fill="#858DA3" fill-opacity="0.6"/>
<path d="M18.1267 25.9125C16.6567 25.9125 15.1792 25.5375 14.0617 24.7875C13.0192 24.0975 12.4492 23.1525 12.4492 22.125C12.4492 21.0975 13.0192 20.145 14.0617 19.4475C16.3117 17.955 19.9567 17.955 22.1917 19.4475C23.2267 20.1375 23.8042 21.0825 23.8042 22.11C23.8042 23.1375 23.2342 24.09 22.1917 24.7875C21.0667 25.5375 19.5967 25.9125 18.1267 25.9125ZM14.6842 20.3925C13.9642 20.8725 13.5742 21.4875 13.5742 22.1325C13.5742 22.77 13.9717 23.385 14.6842 23.8575C16.5517 25.11 19.7017 25.11 21.5692 23.8575C22.2892 23.3775 22.6792 22.7625 22.6792 22.1175C22.6792 21.48 22.2817 20.865 21.5692 20.3925C19.7017 19.1475 16.5517 19.1475 14.6842 20.3925Z" fill="#858DA3" fill-opacity="0.6"/>
</svg>
