<svg width="16" height="16" viewBox="0 0 16 16" fill="none" xmlns="http://www.w3.org/2000/svg">
<path fill-rule="evenodd" clip-rule="evenodd" d="M6.5291 2.13106C6.20559 1.80755 5.67454 1.80755 5.35103 2.13106C5.02752 2.45457 5.02752 2.98562 5.35103 3.30913L9.6977 7.6558C9.88752 7.84562 9.88752 8.15457 9.6977 8.34439L5.35103 12.6911C5.02752 13.0146 5.02752 13.5456 5.35103 13.8691C5.51684 14.0349 5.72976 14.1134 5.94006 14.1134C6.16017 14.1134 6.36603 14.0216 6.52084 13.8771L6.52504 13.8732L10.8735 9.52474L10.8747 9.52356C11.2867 9.11879 11.5067 8.57254 11.5067 8.00009C11.5067 7.42428 11.2778 6.87971 10.8758 6.47773L6.5291 2.13106Z" fill="#1C4FD1"/>
</svg>
