<svg width="16" height="16" viewBox="0 0 16 16" fill="none" xmlns="http://www.w3.org/2000/svg">
<path fill-rule="evenodd" clip-rule="evenodd" d="M6.5291 2.13094C6.20559 1.80743 5.67454 1.80743 5.35103 2.13094C5.02752 2.45444 5.02752 2.9855 5.35103 3.30901L9.6977 7.65567C9.88752 7.8455 9.88752 8.15444 9.6977 8.34427L5.35103 12.6909C5.02752 13.0144 5.02752 13.5455 5.35103 13.869C5.51684 14.0348 5.72976 14.1133 5.94006 14.1133C6.16017 14.1133 6.36603 14.0215 6.52084 13.877L6.52504 13.8731L10.8735 9.52462L10.8747 9.52343C11.2867 9.11867 11.5067 8.57242 11.5067 7.99997C11.5067 7.42416 11.2778 6.87959 10.8758 6.4776L6.5291 2.13094Z" fill="#1C4FD1"/>
</svg>
