<svg width="138" height="40" viewBox="0 0 138 40" fill="none" xmlns="http://www.w3.org/2000/svg">
<path d="M132.836 1H4.16406C2.4166 1 1 2.34315 1 4V36C1 37.6569 2.4166 39 4.16406 39H132.836C134.583 39 136 37.6569 136 36V4C136 2.34315 134.583 1 132.836 1Z" stroke="#F7F7F7" stroke-width="2"/>
<path fill-rule="evenodd" clip-rule="evenodd" d="M26.845 23.8639L30.743 21.758C32.1421 21.0021 32.1421 18.9947 30.743 18.2388L27.0146 16.2245L23.4174 20.1315L26.845 23.8639ZM15.9506 10.2471L26.1082 15.7348L22.7397 19.3935L14.2522 10.1513C14.7736 9.93951 15.3876 9.9429 15.9506 10.2471ZM13.4444 10.7468L22.0614 20.1302L13.5526 29.3721C13.2149 29.0211 13 28.5421 13 27.9901V12.0067C13 11.5163 13.1697 11.0835 13.4444 10.7468ZM15.9507 29.7497C15.4467 30.022 14.9019 30.0533 14.4192 29.905L22.7392 20.8682L25.9395 24.3532L15.9507 29.7497ZM47.072 17.0242H47.624V15.2962H46.824V10.4002H43.488C43.4933 11.2162 43.4613 11.9202 43.392 12.5122C43.3227 13.1042 43.2373 13.5976 43.136 13.9922C43.04 14.3816 42.9413 14.6829 42.84 14.8962C42.744 15.1042 42.672 15.2376 42.624 15.2962H42V17.0242H42.552L42.68 16.0002H46.936L47.072 17.0242ZM46.024 11.1042V15.2962H43.472C43.5627 15.1309 43.648 14.9256 43.728 14.6802C43.8133 14.4349 43.888 14.1416 43.952 13.8002C44.0213 13.4589 44.0773 13.0669 44.12 12.6242C44.168 12.1762 44.2027 11.6696 44.224 11.1042H46.024ZM48.2791 12.9762C48.1885 13.2482 48.1431 13.5576 48.1431 13.9042C48.1431 14.2189 48.1831 14.5122 48.2631 14.7842C48.3485 15.0509 48.4738 15.2829 48.6391 15.4802C48.8098 15.6776 49.0231 15.8322 49.2791 15.9442C49.5351 16.0562 49.8391 16.1122 50.1911 16.1122C50.5111 16.1122 50.7965 16.0616 51.0471 15.9602C51.3031 15.8589 51.5165 15.7122 51.6871 15.5202C51.8631 15.3282 51.9965 15.0962 52.0871 14.8242C52.1831 14.5522 52.2311 14.2456 52.2311 13.9042C52.2311 13.5842 52.1885 13.2909 52.1031 13.0242C52.0231 12.7522 51.8978 12.5176 51.7271 12.3202C51.5565 12.1176 51.3431 11.9602 51.0871 11.8482C50.8311 11.7362 50.5325 11.6802 50.1911 11.6802C49.8658 11.6802 49.5751 11.7309 49.3191 11.8322C49.0685 11.9336 48.8551 12.0802 48.6791 12.2722C48.5031 12.4642 48.3698 12.6989 48.2791 12.9762ZM48.9911 14.4882C48.9485 14.2962 48.9271 14.1016 48.9271 13.9042C48.9271 13.3656 49.0338 12.9656 49.2471 12.7042C49.4658 12.4376 49.7831 12.3042 50.1991 12.3042C50.4231 12.3042 50.6151 12.3496 50.7751 12.4402C50.9351 12.5309 51.0631 12.6509 51.1591 12.8002C51.2605 12.9442 51.3325 13.1122 51.3751 13.3042C51.4231 13.4962 51.4471 13.6962 51.4471 13.9042C51.4471 14.9602 51.0311 15.4882 50.1991 15.4882C49.9645 15.4882 49.7671 15.4429 49.6071 15.3522C49.4471 15.2616 49.3165 15.1416 49.2151 14.9922C49.1138 14.8429 49.0391 14.6749 48.9911 14.4882ZM56.582 15.7122C56.3953 15.8456 56.1767 15.9442 55.926 16.0082C55.6753 16.0776 55.4113 16.1122 55.134 16.1122C54.782 16.1122 54.4807 16.0589 54.23 15.9522C53.9847 15.8456 53.7847 15.6962 53.63 15.5042C53.4753 15.3122 53.3633 15.0802 53.294 14.8082C53.2247 14.5362 53.19 14.2349 53.19 13.9042C53.19 13.1949 53.3607 12.6482 53.702 12.2642C54.0487 11.8749 54.5447 11.6802 55.19 11.6802C55.4727 11.6802 55.718 11.7069 55.926 11.7602C56.134 11.8082 56.3207 11.8696 56.486 11.9442L56.294 12.5442C56.15 12.4696 55.9927 12.4109 55.822 12.3682C55.6567 12.3256 55.4753 12.3042 55.278 12.3042C54.4087 12.3042 53.974 12.8376 53.974 13.9042C53.974 14.1069 53.998 14.3042 54.046 14.4962C54.094 14.6829 54.1713 14.8509 54.278 15.0002C54.3847 15.1442 54.5233 15.2616 54.694 15.3522C54.87 15.4429 55.0833 15.4882 55.334 15.4882C55.558 15.4882 55.7527 15.4589 55.918 15.4002C56.0887 15.3362 56.23 15.2616 56.342 15.1762L56.582 15.7122ZM59.0114 12.4242H60.4674V11.8002H56.8194V12.4242H58.2754V16.0002H59.0114V12.4242ZM62.4758 14.4562L62.7238 15.2642H62.8278L63.0278 14.4482L63.8998 11.8002H64.6518L63.2758 15.6002C63.1745 15.8616 63.0705 16.1149 62.9638 16.3602C62.8625 16.6056 62.7478 16.8216 62.6198 17.0082C62.4971 17.2002 62.3585 17.3522 62.2038 17.4642C62.0545 17.5816 61.8811 17.6402 61.6838 17.6402C61.4705 17.6402 61.2891 17.6162 61.1398 17.5682L61.2598 16.9442C61.3398 16.9709 61.4198 16.9842 61.4998 16.9842C61.6065 16.9842 61.7025 16.9709 61.7878 16.9442C61.8785 16.9176 61.9611 16.8696 62.0358 16.8002C62.1105 16.7309 62.1771 16.6322 62.2358 16.5042C62.2998 16.3816 62.3585 16.2216 62.4118 16.0242L60.5318 11.8002H61.4038L62.4758 14.4562ZM66.1578 12.4242H68.2218V16.0002H68.9578V11.8002H65.4218V16.0002H66.1578V12.4242ZM73.2151 14.1682H71.1031V16.0002H70.3671V11.8002H71.1031V13.5122H73.2151V11.8002H73.9511V16.0002H73.2151V14.1682ZM75.2713 12.9762C75.1806 13.2482 75.1353 13.5576 75.1353 13.9042C75.1353 14.2189 75.1753 14.5122 75.2553 14.7842C75.3406 15.0509 75.466 15.2829 75.6313 15.4802C75.802 15.6776 76.0153 15.8322 76.2713 15.9442C76.5273 16.0562 76.8313 16.1122 77.1833 16.1122C77.5033 16.1122 77.7886 16.0616 78.0393 15.9602C78.2953 15.8589 78.5087 15.7122 78.6793 15.5202C78.8553 15.3282 78.9886 15.0962 79.0793 14.8242C79.1753 14.5522 79.2233 14.2456 79.2233 13.9042C79.2233 13.5842 79.1806 13.2909 79.0953 13.0242C79.0153 12.7522 78.89 12.5176 78.7193 12.3202C78.5486 12.1176 78.3353 11.9602 78.0793 11.8482C77.8233 11.7362 77.5246 11.6802 77.1833 11.6802C76.858 11.6802 76.5673 11.7309 76.3113 11.8322C76.0606 11.9336 75.8473 12.0802 75.6713 12.2722C75.4953 12.4642 75.362 12.6989 75.2713 12.9762ZM75.9833 14.4882C75.9406 14.2962 75.9193 14.1016 75.9193 13.9042C75.9193 13.3656 76.026 12.9656 76.2393 12.7042C76.458 12.4376 76.7753 12.3042 77.1913 12.3042C77.4153 12.3042 77.6073 12.3496 77.7673 12.4402C77.9273 12.5309 78.0553 12.6509 78.1513 12.8002C78.2526 12.9442 78.3246 13.1122 78.3673 13.3042C78.4153 13.4962 78.4393 13.6962 78.4393 13.9042C78.4393 14.9602 78.0233 15.4882 77.1913 15.4882C76.9566 15.4882 76.7593 15.4429 76.5993 15.3522C76.4393 15.2616 76.3086 15.1416 76.2073 14.9922C76.106 14.8429 76.0313 14.6749 75.9833 14.4882ZM82.7343 11.8002L83.0383 11.7842C83.209 11.7736 83.3956 11.7629 83.5983 11.7522C83.801 11.7362 84.0356 11.7282 84.3023 11.7282C84.921 11.7282 85.3636 11.8162 85.6303 11.9922C85.9023 12.1629 86.0383 12.4189 86.0383 12.7602C86.0383 12.9469 85.9716 13.1362 85.8383 13.3282C85.7103 13.5149 85.505 13.6509 85.2223 13.7362V13.8242C85.5743 13.8936 85.825 14.0109 85.9743 14.1762C86.129 14.3416 86.2063 14.5602 86.2063 14.8322C86.2063 15.2536 86.033 15.5656 85.6863 15.7682C85.3396 15.9656 84.817 16.0642 84.1183 16.0642C83.8837 16.0642 83.6623 16.0562 83.4543 16.0402C83.2463 16.0296 83.0436 16.0162 82.8463 16.0002H82.7903C82.7743 15.9949 82.7556 15.9922 82.7343 15.9922V11.8002ZM83.4703 15.4242C83.5876 15.4402 83.7023 15.4536 83.8143 15.4642C83.9263 15.4696 84.065 15.4722 84.2303 15.4722C84.6516 15.4722 84.9556 15.4189 85.1423 15.3122C85.329 15.2002 85.4223 15.0189 85.4223 14.7682C85.4223 14.6669 85.4036 14.5736 85.3663 14.4882C85.329 14.4029 85.2676 14.3309 85.1823 14.2722C85.097 14.2136 84.9796 14.1682 84.8303 14.1362C84.6863 14.0989 84.5076 14.0802 84.2943 14.0802H83.4703V15.4242ZM84.3823 13.5762C84.4996 13.5762 84.6116 13.5602 84.7183 13.5282C84.825 13.4962 84.921 13.4509 85.0063 13.3922C85.0916 13.3336 85.1583 13.2669 85.2063 13.1922C85.2596 13.1122 85.2863 13.0269 85.2863 12.9362C85.2863 12.7122 85.209 12.5576 85.0543 12.4722C84.905 12.3816 84.6463 12.3362 84.2783 12.3362C84.1556 12.3362 84.0303 12.3416 83.9023 12.3522C83.7796 12.3576 83.6356 12.3629 83.4703 12.3682V13.5762H84.3823ZM45.783 25.2162H49.501V29.2982C49.3017 29.4542 49.0807 29.5886 48.838 29.7012C48.604 29.8052 48.3527 29.8962 48.084 29.9742C47.824 30.0435 47.5553 30.0956 47.278 30.1302C47.0007 30.1649 46.7277 30.1822 46.459 30.1822C45.835 30.1822 45.25 30.0912 44.704 29.9092C44.1667 29.7272 43.6943 29.4455 43.287 29.0642C42.8883 28.6742 42.572 28.1802 42.338 27.5822C42.1127 26.9842 42 26.2736 42 25.4502C42 24.5922 42.1387 23.8642 42.416 23.2662C42.6933 22.6595 43.053 22.1699 43.495 21.7972C43.9457 21.4159 44.444 21.1429 44.99 20.9782C45.5447 20.8049 46.095 20.7182 46.641 20.7182C47.2043 20.7182 47.6983 20.7615 48.123 20.8482C48.5563 20.9262 48.8943 21.0042 49.137 21.0822L48.734 22.6812C48.5 22.6032 48.2357 22.5382 47.941 22.4862C47.6463 22.4342 47.278 22.4082 46.836 22.4082C46.4287 22.4082 46.056 22.4645 45.718 22.5772C45.38 22.6812 45.0853 22.8545 44.834 23.0972C44.5827 23.3399 44.3877 23.6562 44.249 24.0462C44.1103 24.4362 44.041 24.9085 44.041 25.4632C44.041 26.0005 44.1103 26.4599 44.249 26.8412C44.3877 27.2225 44.574 27.5389 44.808 27.7902C45.0507 28.0329 45.328 28.2105 45.64 28.3232C45.952 28.4359 46.2813 28.4922 46.628 28.4922C46.862 28.4922 47.096 28.4662 47.33 28.4142C47.5727 28.3622 47.7763 28.2799 47.941 28.1672V26.5942L45.783 26.3862V25.2162ZM50.6207 26.5942C50.6207 25.4675 50.9197 24.5835 51.5177 23.9422C52.1157 23.3009 52.9694 22.9802 54.0787 22.9802C54.6594 22.9802 55.1664 23.0712 55.5997 23.2532C56.0331 23.4352 56.3927 23.6909 56.6787 24.0202C56.9647 24.3409 57.1771 24.7222 57.3157 25.1642C57.4631 25.5975 57.5367 26.0742 57.5367 26.5942C57.5367 27.1489 57.4587 27.6516 57.3027 28.1022C57.1467 28.5442 56.9214 28.9212 56.6267 29.2332C56.3321 29.5452 55.9681 29.7836 55.5347 29.9482C55.1101 30.1129 54.6247 30.1952 54.0787 30.1952C53.4894 30.1952 52.9781 30.1042 52.5447 29.9222C52.1114 29.7402 51.7517 29.4889 51.4657 29.1682C51.1797 28.8389 50.9674 28.4576 50.8287 28.0242C50.6901 27.5822 50.6207 27.1055 50.6207 26.5942ZM52.4927 26.5942C52.4927 26.8802 52.5231 27.1489 52.5837 27.4002C52.6444 27.6516 52.7354 27.8726 52.8567 28.0632C52.9867 28.2452 53.1514 28.3926 53.3507 28.5052C53.5501 28.6179 53.7927 28.6742 54.0787 28.6742C55.1361 28.6742 55.6647 27.9809 55.6647 26.5942C55.6647 26.2909 55.6344 26.0135 55.5737 25.7622C55.5217 25.5022 55.4307 25.2812 55.3007 25.0992C55.1794 24.9085 55.0147 24.7612 54.8067 24.6572C54.6074 24.5532 54.3647 24.5012 54.0787 24.5012C53.5847 24.5012 53.1947 24.6659 52.9087 24.9952C52.6314 25.3245 52.4927 25.8575 52.4927 26.5942ZM59.5285 23.9422C58.9305 24.5835 58.6315 25.4675 58.6315 26.5942C58.6315 27.1055 58.7008 27.5822 58.8395 28.0242C58.9781 28.4576 59.1905 28.8389 59.4765 29.1682C59.7625 29.4889 60.1221 29.7402 60.5555 29.9222C60.9888 30.1042 61.5001 30.1952 62.0895 30.1952C62.6355 30.1952 63.1208 30.1129 63.5455 29.9482C63.9788 29.7836 64.3428 29.5452 64.6375 29.2332C64.9321 28.9212 65.1575 28.5442 65.3135 28.1022C65.4695 27.6516 65.5475 27.1489 65.5475 26.5942C65.5475 26.0742 65.4738 25.5975 65.3265 25.1642C65.1878 24.7222 64.9755 24.3409 64.6895 24.0202C64.4035 23.6909 64.0438 23.4352 63.6105 23.2532C63.1771 23.0712 62.6701 22.9802 62.0895 22.9802C60.9801 22.9802 60.1265 23.3009 59.5285 23.9422ZM60.5945 27.4002C60.5338 27.1489 60.5035 26.8802 60.5035 26.5942C60.5035 25.8575 60.6421 25.3245 60.9195 24.9952C61.2055 24.6659 61.5955 24.5012 62.0895 24.5012C62.3755 24.5012 62.6181 24.5532 62.8175 24.6572C63.0255 24.7612 63.1901 24.9085 63.3115 25.0992C63.4415 25.2812 63.5325 25.5022 63.5845 25.7622C63.6451 26.0135 63.6755 26.2909 63.6755 26.5942C63.6755 27.9809 63.1468 28.6742 62.0895 28.6742C61.8035 28.6742 61.5608 28.6179 61.3615 28.5052C61.1621 28.3926 60.9975 28.2452 60.8675 28.0632C60.7461 27.8726 60.6551 27.6516 60.5945 27.4002ZM73.2072 29.7402C73.2072 30.7455 72.9212 31.4865 72.3492 31.9632C71.7772 32.4399 70.9669 32.6782 69.9182 32.6782C69.2422 32.6782 68.6962 32.6306 68.2802 32.5352C67.8729 32.4485 67.5565 32.3489 67.3312 32.2362C67.4439 31.8895 67.5262 31.6122 67.5782 31.4042C67.6389 31.2049 67.6822 31.0532 67.7082 30.9492C67.7342 30.8452 67.7515 30.7802 67.7602 30.7542L67.7732 30.7152C67.9812 30.8192 68.2325 30.9232 68.5272 31.0272C68.8219 31.1399 69.1815 31.1962 69.6062 31.1962C69.9615 31.1962 70.2562 31.1615 70.4902 31.0922C70.7242 31.0229 70.9105 30.9189 71.0492 30.7802C71.1879 30.6502 71.2832 30.4899 71.3352 30.2992C71.3959 30.1086 71.4262 29.8962 71.4262 29.6622V29.1552H71.2702C71.0969 29.4065 70.8585 29.5842 70.5552 29.6882C70.2519 29.7922 69.8749 29.8442 69.4242 29.8442C68.4969 29.8442 67.7992 29.5886 67.3312 29.0772C66.8719 28.5659 66.6422 27.7425 66.6422 26.6072C66.6422 25.4112 66.9455 24.5099 67.5522 23.9032C68.1675 23.2965 69.0775 22.9932 70.2822 22.9932C70.9149 22.9932 71.4782 23.0365 71.9722 23.1232C72.4749 23.2012 72.8865 23.2922 73.2072 23.3962V29.7402ZM69.8532 28.4272C70.2519 28.4272 70.5769 28.3535 70.8282 28.2062C71.0882 28.0589 71.2745 27.8769 71.3872 27.6602V24.7222C71.0665 24.5835 70.6592 24.5142 70.1652 24.5142C69.6365 24.5142 69.2292 24.6702 68.9432 24.9822C68.6572 25.2942 68.5142 25.8099 68.5142 26.5292C68.5142 27.1879 68.6355 27.6689 68.8782 27.9722C69.1209 28.2756 69.4459 28.4272 69.8532 28.4272ZM77.577 28.5962C77.1524 28.5962 76.94 28.2669 76.94 27.6082V20.9002H75.12V28.6482C75.12 29.2029 75.263 29.6016 75.549 29.8442C75.8437 30.0869 76.264 30.2082 76.81 30.2082C77.148 30.2082 77.473 30.1692 77.785 30.0912C78.1057 30.0219 78.3527 29.9482 78.526 29.8702L78.305 28.4532C78.1577 28.5052 78.0277 28.5442 77.915 28.5702C77.811 28.5876 77.6984 28.5962 77.577 28.5962ZM85.2979 29.3762C85.0033 29.6016 84.6003 29.7966 84.0889 29.9612C83.5863 30.1172 83.0446 30.1952 82.4639 30.1952C81.2939 30.1952 80.4359 29.8745 79.8899 29.2332C79.3439 28.5919 79.0709 27.7122 79.0709 26.5942C79.0709 25.4069 79.3786 24.5099 79.9939 23.9032C80.6093 23.2879 81.4759 22.9802 82.5939 22.9802C82.9579 22.9802 83.3176 23.0279 83.6729 23.1232C84.0283 23.2099 84.3446 23.3615 84.6219 23.5782C84.8993 23.7862 85.1203 24.0722 85.2849 24.4362C85.4583 24.7915 85.5449 25.2335 85.5449 25.7622C85.5449 25.9442 85.5319 26.1435 85.5059 26.3602C85.4886 26.5769 85.4539 26.8022 85.4019 27.0362H80.8519C80.8953 27.6255 81.0643 28.0632 81.3589 28.3492C81.6623 28.6265 82.1519 28.7652 82.8279 28.7652C83.2353 28.7652 83.5993 28.7089 83.9199 28.5962C84.2493 28.4749 84.5006 28.3535 84.6739 28.2322L85.2979 29.3762ZM82.5679 24.4102C82.0306 24.4102 81.6319 24.5575 81.3719 24.8522C81.1119 25.1382 80.9603 25.5065 80.9169 25.9572H83.8549C83.8896 25.4805 83.8029 25.1035 83.5949 24.8262C83.3869 24.5489 83.0446 24.4102 82.5679 24.4102ZM91.9814 20.8352C91.5048 20.8699 91.0714 20.9219 90.6814 20.9912V30.0002H92.6054V26.9322C92.6574 26.9409 92.7354 26.9496 92.8394 26.9582C92.9434 26.9669 93.0518 26.9756 93.1644 26.9842H93.5024H93.7234C94.2088 26.9842 94.6811 26.9279 95.1404 26.8152C95.5998 26.6939 96.0071 26.5075 96.3624 26.2562C96.7264 26.0049 97.0168 25.6799 97.2334 25.2812C97.4501 24.8739 97.5584 24.3842 97.5584 23.8122C97.5584 23.1622 97.4328 22.6422 97.1814 22.2522C96.9301 21.8535 96.6051 21.5459 96.2064 21.3292C95.8164 21.1039 95.3744 20.9565 94.8804 20.8872C94.3864 20.8092 93.8968 20.7702 93.4114 20.7702C92.9348 20.7702 92.4581 20.7919 91.9814 20.8352ZM93.0084 22.4732C93.1818 22.4645 93.3595 22.4602 93.5414 22.4602C93.7841 22.4602 94.0224 22.4775 94.2564 22.5122C94.4991 22.5469 94.7114 22.6119 94.8934 22.7072C95.0841 22.8025 95.2358 22.9369 95.3484 23.1102C95.4611 23.2749 95.5174 23.4959 95.5174 23.7732C95.5174 24.1025 95.4568 24.3669 95.3354 24.5662C95.2141 24.7569 95.0538 24.9085 94.8544 25.0212C94.6638 25.1339 94.4428 25.2075 94.1914 25.2422C93.9401 25.2769 93.6888 25.2942 93.4374 25.2942H93.2554C93.1861 25.2855 93.1081 25.2812 93.0214 25.2812C92.9348 25.2725 92.8524 25.2639 92.7744 25.2552C92.6964 25.2465 92.6401 25.2379 92.6054 25.2292V22.5252C92.7094 22.4992 92.8438 22.4819 93.0084 22.4732ZM101.33 28.5962C101.451 28.5962 101.564 28.5876 101.668 28.5702C101.781 28.5442 101.911 28.5052 102.058 28.4532L102.279 29.8702C102.106 29.9482 101.859 30.0219 101.538 30.0912C101.226 30.1692 100.901 30.2082 100.563 30.2082C100.017 30.2082 99.5966 30.0869 99.302 29.8442C99.016 29.6016 98.873 29.2029 98.873 28.6482V20.9002H100.693V27.6082C100.693 28.2669 100.905 28.5962 101.33 28.5962ZM104.579 23.2142C104.016 23.3269 103.539 23.4699 103.149 23.6432L103.63 25.0212C103.933 24.8739 104.28 24.7525 104.67 24.6572C105.069 24.5532 105.476 24.5012 105.892 24.5012C106.343 24.5012 106.65 24.5792 106.815 24.7352C106.98 24.8912 107.062 25.1339 107.062 25.4632C107.062 25.5932 107.049 25.7492 107.023 25.9312C106.928 25.9139 106.759 25.8879 106.516 25.8532C106.273 25.8099 106.031 25.7882 105.788 25.7882C104.739 25.7882 103.955 25.9875 103.435 26.3862C102.924 26.7762 102.668 27.3569 102.668 28.1282C102.668 28.4142 102.72 28.6786 102.824 28.9212C102.937 29.1639 103.088 29.3762 103.279 29.5582C103.478 29.7315 103.712 29.8659 103.981 29.9612C104.258 30.0565 104.562 30.1042 104.891 30.1042C105.437 30.1042 105.883 29.9959 106.23 29.7792C106.577 29.5625 106.863 29.3026 107.088 28.9992H107.244L107.543 30.0132H109.025C108.93 29.7272 108.86 29.4282 108.817 29.1162C108.774 28.8042 108.752 28.4836 108.752 28.1542C108.752 27.6689 108.769 27.2095 108.804 26.7762C108.839 26.3429 108.856 25.9052 108.856 25.4632C108.856 25.0992 108.813 24.7699 108.726 24.4752C108.648 24.1719 108.514 23.9162 108.323 23.7082C108.132 23.4915 107.872 23.3269 107.543 23.2142C107.222 23.1015 106.824 23.0452 106.347 23.0452C105.74 23.0452 105.151 23.1015 104.579 23.2142ZM106.503 28.3622C106.26 28.5529 105.935 28.6482 105.528 28.6482C105.225 28.6482 104.982 28.5702 104.8 28.4142C104.627 28.2582 104.54 28.0242 104.54 27.7122C104.54 27.4609 104.653 27.2529 104.878 27.0882C105.103 26.9149 105.45 26.8282 105.918 26.8282C106.005 26.8282 106.1 26.8326 106.204 26.8412C106.317 26.8499 106.425 26.8629 106.529 26.8802C106.642 26.8975 106.741 26.9149 106.828 26.9322C106.923 26.9496 106.993 26.9669 107.036 26.9842V27.7642C106.923 27.9722 106.746 28.1716 106.503 28.3622ZM113.238 26.9582L113.524 28.0502H113.654L113.901 26.9582L115.058 23.1752H116.917L114.655 29.3502C114.465 29.8615 114.283 30.3209 114.109 30.7282C113.945 31.1356 113.763 31.4822 113.563 31.7682C113.364 32.0542 113.139 32.2709 112.887 32.4182C112.645 32.5742 112.354 32.6522 112.016 32.6522C111.791 32.6522 111.574 32.6306 111.366 32.5872C111.167 32.5526 110.994 32.4962 110.846 32.4182L111.223 31.0142C111.353 31.0575 111.488 31.0792 111.626 31.0792C111.748 31.0792 111.865 31.0662 111.977 31.0402C112.09 31.0142 112.194 30.9622 112.289 30.8842C112.385 30.8149 112.471 30.7109 112.549 30.5722C112.636 30.4422 112.71 30.2645 112.77 30.0392L109.65 23.1752H111.847L113.238 26.9582Z" fill="#F7F7F7"/>
</svg>
