<svg width="20" height="20" viewBox="0 0 20 20" fill="none" xmlns="http://www.w3.org/2000/svg">
<path d="M10.0003 18.0417C9.74199 18.0417 9.49199 18.0083 9.28366 17.9333C6.10033 16.8417 1.04199 12.9667 1.04199 7.24168C1.04199 4.32501 3.40033 1.95834 6.30033 1.95834C7.70866 1.95834 9.02533 2.50834 10.0003 3.49168C10.9753 2.50834 12.292 1.95834 13.7003 1.95834C16.6003 1.95834 18.9587 4.33334 18.9587 7.24168C18.9587 12.975 13.9003 16.8417 10.717 17.9333C10.5087 18.0083 10.2587 18.0417 10.0003 18.0417ZM6.30033 3.20834C4.09199 3.20834 2.29199 5.01668 2.29199 7.24168C2.29199 12.9333 7.76699 16.1 9.69199 16.7583C9.84199 16.8083 10.167 16.8083 10.317 16.7583C12.2337 16.1 17.717 12.9417 17.717 7.24168C17.717 5.01668 15.917 3.20834 13.7087 3.20834C12.442 3.20834 11.267 3.80001 10.5087 4.82501C10.2753 5.14168 9.74199 5.14168 9.50866 4.82501C8.73366 3.79168 7.56699 3.20834 6.30033 3.20834Z" fill="#858DA3"/>
</svg>
