<svg width="80" height="46" viewBox="0 0 80 46" fill="none" xmlns="http://www.w3.org/2000/svg">
<g clip-path="url(#clip0_1690_3239)">
<path d="M15.575 3.39794H10.078V18.1954H6.04683V3.39794H0.549805V0H15.575V3.39794Z" fill="white"/>
<path d="M29.721 11.6187C29.721 15.857 27.0092 18.6338 22.9047 18.6338C18.8003 18.6338 16.0518 15.857 16.0518 11.6187C16.0518 7.417 18.8003 4.64019 22.9414 4.64019C27.0092 4.64019 29.721 7.417 29.721 11.6187ZM19.6798 11.6187C19.6798 14.3225 20.8525 15.8936 22.9047 15.8936C24.9203 15.8936 26.093 14.3225 26.093 11.5822C26.093 8.95155 24.8836 7.38046 22.8681 7.38046C20.8891 7.38046 19.6798 8.98809 19.6798 11.6187Z" fill="white"/>
<path d="M37.1596 6.64972C38.1491 5.29786 39.5783 4.64019 41.2641 4.64019C44.8188 4.64019 47.1642 7.417 47.1642 11.6918C47.1642 15.8205 44.8921 18.5608 41.4107 18.5608C39.7249 18.5608 38.2957 17.9396 37.3429 16.5878V22.9087H33.7148V5.00556H37.1596V6.64972ZM37.1963 11.6553C37.1963 14.2129 38.369 15.7109 40.3846 15.7109C42.3268 15.7109 43.4995 14.2129 43.4995 11.6918C43.4995 9.0977 42.2902 7.56315 40.3479 7.56315C38.369 7.56315 37.1963 9.0977 37.1963 11.6553Z" fill="white"/>
<path d="M10.7742 37.8157V44.8308H6.81631V37.7427L0 26.6354H4.58085L8.83188 33.9428L13.1562 26.6354H17.5905L10.7742 37.8157Z" fill="white"/>
<path d="M30.1235 44.8308H26.642V42.9674C25.6526 44.4289 24.2233 45.2327 22.3177 45.2327C19.4592 45.2327 17.7002 43.6616 17.7002 40.5195V31.641H21.3649V39.2041C21.3649 40.8848 21.5115 42.2002 23.6003 42.2002C25.8724 42.2002 26.4588 40.4464 26.4588 38.4734V31.641H30.0868V44.8308H30.1235Z" fill="white"/>
<path d="M42.4 34.7466C41.7404 34.637 41.4106 34.6005 40.9708 34.6005C38.4422 34.6005 37.4894 36.3908 37.4894 38.8022V44.8308H33.8613V31.641H37.3428V34.089C38.149 32.3717 39.6515 31.3487 41.6305 31.3487C41.9236 31.3487 42.0702 31.3852 42.4367 31.4218V34.7466H42.4Z" fill="white"/>
<path d="M65.8545 35.4774C65.6347 34.089 64.7918 33.6505 63.3259 33.6505C62.0433 33.6505 61.2737 34.1255 61.2737 34.9658C61.2737 36.062 62.4097 36.2081 64.4986 36.6465C66.8807 37.1215 69.6658 37.7427 69.6658 40.7387C69.6658 43.5155 67.3937 45.2327 63.6191 45.2327C60.3209 45.2327 57.4624 43.9174 57.4258 40.556H60.9072C61.0172 42.1271 62.0799 42.7482 63.729 42.7482C65.2316 42.7482 66.1477 42.0905 66.1477 41.104C66.1477 39.9714 65.085 39.7887 63.1793 39.3503C60.8339 38.8022 57.7556 38.4369 57.7556 35.2947C57.7556 32.7006 59.8445 31.2391 63.5458 31.2391C66.5875 31.2391 69.1894 32.4083 69.2994 35.4774H65.8545Z" fill="white"/>
<path d="M80.0001 34.089H77.3249V40.3002C77.3249 41.579 77.3615 42.1636 78.9007 42.1636C79.2672 42.1636 79.5603 42.1636 80.0001 42.1271V44.9039C79.0106 44.977 78.6075 45.0135 77.8013 45.0135C74.6863 45.0135 73.6969 44.2097 73.6969 40.9579V34.089H71.498V31.641H73.6969V27.6585H77.3249V31.641H80.0367V34.089H80.0001Z" fill="white"/>
<path d="M48.6572 38.6327C48.6572 38.6327 48.706 30.0246 52.5596 23.9942C56.4131 17.915 59.096 17.4287 59.096 17.4287C59.096 17.4287 57.4375 17.4287 55.779 17.1369C54.1205 16.8451 52.6571 17.7691 52.6571 17.7691C52.6571 17.7691 53.1449 16.1156 53.1937 15.5806C52.6571 16.7965 52.2669 17.6232 51.4864 18.6932C50.7059 19.7631 50.9986 21.8057 50.9986 21.8057C50.9986 21.8057 50.2182 21.1734 50.462 19.6658C50.7059 18.1582 50.1694 17.2342 50.1694 17.2342C50.1694 17.2342 50.3645 18.7418 49.8279 19.7145C49.2913 20.6871 47.1938 23.3133 47.1938 25.8422C47.1938 28.3711 47.7304 30.0246 47.7304 30.0246C47.7304 30.0246 45.6817 29.3924 45.3402 27.3985C44.9988 25.4045 44.95 24.5777 44.95 24.5777C44.95 24.5777 44.3159 25.7936 44.3159 27.3498C44.3159 28.9061 44.2671 29.6842 44.2671 29.6842C44.2671 29.6842 43.3891 29.0033 42.8037 29.8301C42.8037 29.8301 43.6817 29.1979 44.0232 29.7328C44.3646 30.2678 44.4134 32.2618 44.9988 33.4776C45.5841 34.6934 46.4622 35.8606 46.4622 35.8606C46.4622 35.8606 44.7549 35.6661 43.8281 34.0125C42.9013 32.359 43.1452 32.7967 43.1452 32.7967C43.1452 32.7967 43.5354 34.742 44.3646 35.6661C45.1939 36.5901 46.8524 37.1251 46.8524 37.1251C46.8524 37.1251 45.7305 37.271 45.1451 37.8059C45.1451 37.8059 46.3158 37.0764 46.9499 37.3682C47.5841 37.66 47.5353 37.8059 47.5353 37.8059C47.5353 37.8059 46.2183 37.8545 45.8768 38.7299C45.8768 38.7299 46.9499 37.7086 47.5353 37.9518C48.1206 38.2922 48.6572 38.6327 48.6572 38.6327Z" fill="white"/>
<path d="M50.3154 47.4838C50.3154 47.4838 48.2666 40.5779 49.3886 34.742C50.5105 28.906 53.8762 17.915 62.2175 16.8937C63.1443 16.7964 63.6321 16.8937 63.6321 16.0183C63.7296 17.0396 62.998 17.5259 62.998 17.5259C62.998 17.5259 67.632 17.2341 68.7539 19.7144C69.8758 22.1461 69.7783 24.5291 69.9246 24.8695C70.0222 25.2586 70.1197 25.6476 70.9002 25.6963C70.9002 25.6963 70.4612 26.4744 69.2905 25.6963C69.5344 26.8634 70.4612 29.3924 68.4125 33.1371C67.3881 34.8393 67.2417 35.0824 67.2417 35.0824C67.2417 35.0824 68.071 31.1431 66.4125 29.3924C64.754 27.6416 63.9735 27.7388 63.9735 27.7388C63.9735 27.7388 66.6564 29.6842 66.5101 31.5322C65.6808 30.5109 66.1198 30.5109 64.2662 29.9273C62.4126 29.3437 59.9736 28.3224 59.3395 26.3771C59.0956 25.7449 59.1444 25.599 59.1444 25.599C59.1444 25.599 62.315 22.8269 64.5589 23.7509C65.632 24.1886 65.8759 24.3832 65.8759 24.3832C65.8759 24.3832 64.6077 22.5837 62.0712 23.3619C59.5346 24.14 56.2664 27.982 56.2664 27.982C56.2664 27.982 57.6322 27.6902 57.6322 29.1492C57.3883 28.8088 57.1444 28.1279 56.5103 28.6142C55.8762 29.1006 53.6811 32.0185 51.7787 32.748C51.7787 32.748 53.1446 32.6508 54.4128 31.5808C55.6811 30.5596 57.5835 30.9 57.5835 30.9C57.5835 30.9 54.7055 31.0945 53.9738 32.7967C53.9738 32.7967 56.8518 31.6781 57.8761 32.1644C56.9981 32.4076 56.2176 32.6508 55.6323 33.7207C55.0469 34.7906 53.8275 35.9092 52.8519 36.0551C52.8519 36.0551 54.4128 36.4441 56.3152 34.9852C56.3152 34.9852 54.7543 36.9305 52.8031 37.0277C52.8031 37.0277 53.2909 37.4168 54.7543 37.3682C53.925 37.8059 52.4616 37.7572 51.8763 37.5627C52.2177 38.2436 52.1202 38.6813 52.1202 38.6813C52.1202 38.6813 51.4373 37.7572 50.8519 37.7086C50.2666 37.7086 49.4861 37.125 50.3154 47.4838Z" fill="white"/>
</g>
<defs>
<clipPath id="clip0_1690_3239">
<rect width="80" height="46" fill="white"/>
</clipPath>
</defs>
</svg>
