<svg width="136" height="78" viewBox="0 0 136 78" fill="none" xmlns="http://www.w3.org/2000/svg">
<g clip-path="url(#clip0_3015_3860)">
<path d="M26.4774 5.76172H17.1325V30.8531H10.2795V5.76172H0.93457V0H26.4774V5.76172Z" fill="#18181C"/>
<path d="M50.5249 19.7014C50.5249 26.888 45.9147 31.5965 38.9371 31.5965C31.9596 31.5965 27.2871 26.888 27.2871 19.7014C27.2871 12.5767 31.9596 7.86816 38.9994 7.86816C45.9147 7.86816 50.5249 12.5767 50.5249 19.7014ZM33.4548 19.7014C33.4548 24.286 35.4484 26.95 38.9371 26.95C42.3636 26.95 44.3572 24.286 44.3572 19.6394C44.3572 15.1787 42.3013 12.5147 38.8748 12.5147C35.5107 12.5147 33.4548 15.2407 33.4548 19.7014Z" fill="#18181C"/>
<path d="M63.1721 11.2756C64.8542 8.98334 67.2839 7.86816 70.1496 7.86816C76.1927 7.86816 80.1799 12.5767 80.1799 19.8253C80.1799 26.8261 76.3173 31.4726 70.3988 31.4726C67.5331 31.4726 65.1034 30.4194 63.4836 28.1271V38.8451H57.3159V8.4877H63.1721V11.2756ZM63.2344 19.7633C63.2344 24.1001 65.228 26.6402 68.6544 26.6402C71.9563 26.6402 73.9499 24.1001 73.9499 19.8253C73.9499 15.4265 71.894 12.8245 68.5921 12.8245C65.228 12.8245 63.2344 15.4265 63.2344 19.7633Z" fill="#18181C"/>
<path d="M18.3161 64.1223V76.0175H11.5877V63.9984L0 45.1644H7.78745L15.0142 57.5552L22.3656 45.1644H29.9038L18.3161 64.1223Z" fill="#18181C"/>
<path d="M51.2104 76.0175H45.2919V72.8578C43.6098 75.336 41.1801 76.699 37.9406 76.699C33.0812 76.699 30.0908 74.0349 30.0908 68.7069V53.6521H36.3208V66.4766C36.3208 69.3264 36.57 71.5568 40.1211 71.5568C43.9836 71.5568 44.9804 68.583 44.9804 65.2375V53.6521H51.1481V76.0175H51.2104Z" fill="#18181C"/>
<path d="M72.0807 58.9182C70.9593 58.7323 70.3987 58.6704 69.6511 58.6704C65.3524 58.6704 63.7326 61.7061 63.7326 65.7951V76.0175H57.5649V53.6521H63.4834V57.803C64.854 54.8912 67.4083 53.1565 70.7725 53.1565C71.2708 53.1565 71.52 53.2184 72.143 53.2804V58.9182H72.0807Z" fill="#18181C"/>
<path d="M111.952 60.1572C111.579 57.803 110.146 57.0595 107.654 57.0595C105.473 57.0595 104.165 57.8649 104.165 59.2899C104.165 61.1485 106.096 61.3963 109.647 62.1398C113.697 62.9452 118.432 63.9984 118.432 69.0786C118.432 73.7871 114.569 76.6989 108.152 76.6989C102.545 76.6989 97.6858 74.4686 97.6235 68.7688H103.542C103.729 71.4329 105.536 72.4861 108.339 72.4861C110.893 72.4861 112.451 71.3709 112.451 69.6981C112.451 67.7776 110.644 67.4678 107.405 66.7244C103.417 65.795 98.1842 65.1755 98.1842 59.8475C98.1842 55.4487 101.735 52.9706 108.028 52.9706C113.198 52.9706 117.622 54.9531 117.809 60.1572H111.952Z" fill="#18181C"/>
<path d="M136 57.8031H131.452V68.3352C131.452 70.5036 131.514 71.4949 134.131 71.4949C134.754 71.4949 135.252 71.4949 136 71.4329V76.1414C134.318 76.2653 133.633 76.3273 132.262 76.3273C126.966 76.3273 125.284 74.9643 125.284 69.4504V57.8031H121.546V53.6521H125.284V46.8992H131.452V53.6521H136.062V57.8031H136Z" fill="#18181C"/>
<path d="M82.7171 65.5075C82.7171 65.5075 82.8 50.9113 89.351 40.6857C95.9021 30.3776 100.463 29.553 100.463 29.553C100.463 29.553 97.6435 29.553 94.8241 29.0582C92.0046 28.5634 89.5169 30.1302 89.5169 30.1302C89.5169 30.1302 90.3461 27.3264 90.4291 26.4193C89.5169 28.4809 88.8535 29.8828 87.5267 31.697C86.1999 33.5113 86.6975 36.9748 86.6975 36.9748C86.6975 36.9748 85.3707 35.9027 85.7853 33.3463C86.1999 30.7899 85.2877 29.2231 85.2877 29.2231C85.2877 29.2231 85.6194 31.7795 84.7073 33.4288C83.7951 35.0781 80.2293 39.5312 80.2293 43.8193C80.2293 48.1075 81.1415 50.9113 81.1415 50.9113C81.1415 50.9113 77.6587 49.8393 77.0782 46.4582C76.4977 43.0772 76.4148 41.6753 76.4148 41.6753C76.4148 41.6753 75.3368 43.7369 75.3368 46.3757C75.3368 49.0146 75.2539 50.334 75.2539 50.334C75.2539 50.334 73.7612 49.1795 72.7661 50.5814C72.7661 50.5814 74.2588 49.5094 74.8392 50.4165C75.4197 51.3236 75.5026 54.7047 76.4977 56.7663C77.4928 58.8279 78.9855 60.807 78.9855 60.807C78.9855 60.807 76.0831 60.4772 74.5075 57.6734C72.932 54.8696 73.3466 55.6118 73.3466 55.6118C73.3466 55.6118 74.01 58.9104 75.4197 60.4772C76.8294 62.044 79.6489 62.9511 79.6489 62.9511C79.6489 62.9511 77.7416 63.1985 76.7465 64.1056C76.7465 64.1056 78.7367 62.8687 79.8147 63.3634C80.8927 63.8582 80.8098 64.1056 80.8098 64.1056C80.8098 64.1056 78.5708 64.1881 77.9904 65.6725C77.9904 65.6725 79.8147 63.9407 80.8098 64.353C81.8049 64.9303 82.7171 65.5075 82.7171 65.5075Z" fill="#1C4FD1"/>
<path d="M85.5366 80.516C85.5366 80.516 82.0538 68.806 83.961 58.9102C85.8683 49.0145 91.5901 30.3775 105.77 28.6457C107.346 28.4808 108.175 28.6457 108.175 27.1614C108.341 28.8931 107.097 29.7178 107.097 29.7178C107.097 29.7178 114.975 29.223 116.882 33.4287C118.789 37.5519 118.624 41.5927 118.872 42.1699C119.038 42.8296 119.204 43.4894 120.531 43.5718C120.531 43.5718 119.784 44.8913 117.794 43.5718C118.209 45.551 119.784 49.8391 116.302 56.1889C114.56 59.0752 114.311 59.4875 114.311 59.4875C114.311 59.4875 115.721 52.8079 112.902 49.8391C110.082 46.8704 108.756 47.0353 108.756 47.0353C108.756 47.0353 113.316 50.3339 113.068 53.4676C111.658 51.7358 112.404 51.7358 109.253 50.7463C106.102 49.7567 101.956 48.0249 100.878 44.7263C100.463 43.6543 100.546 43.4069 100.546 43.4069C100.546 43.4069 105.936 38.7064 109.751 40.2732C111.575 41.0154 111.99 41.3453 111.99 41.3453C111.99 41.3453 109.834 38.2941 105.521 39.6135C101.209 40.933 95.6534 47.4477 95.6534 47.4477C95.6534 47.4477 97.9753 46.9529 97.9753 49.4268C97.5607 48.8496 97.1461 47.6951 96.068 48.5197C94.99 49.3443 91.2584 54.2922 88.0243 55.5292C88.0243 55.5292 90.3462 55.3643 92.5023 53.55C94.6583 51.8183 97.8924 52.3955 97.8924 52.3955C97.8924 52.3955 92.9998 52.7254 91.7559 55.6117C91.7559 55.6117 96.6485 53.715 98.3899 54.5396C96.8973 54.9519 95.5705 55.3643 94.5754 57.1785C93.5803 58.9927 91.5072 60.8894 89.8487 61.1368C89.8487 61.1368 92.5023 61.7965 95.7363 59.3226C95.7363 59.3226 93.0827 62.6212 89.7658 62.7861C89.7658 62.7861 90.595 63.4458 93.0827 63.3633C91.673 64.1055 89.1853 64.023 88.1902 63.6932C88.7707 64.8477 88.6048 65.5899 88.6048 65.5899C88.6048 65.5899 87.4439 64.023 86.4488 63.9406C85.4537 63.9406 84.1269 62.951 85.5366 80.516Z" fill="#1C4FD1"/>
</g>
<defs>
<clipPath id="clip0_3015_3860">
<rect width="136" height="78" fill="white"/>
</clipPath>
</defs>
</svg>
