<svg width="374" height="290" viewBox="0 0 374 290" fill="none" xmlns="http://www.w3.org/2000/svg">
<g filter="url(#filter0_f_476_6093)">
<ellipse cx="183.499" cy="235.673" rx="139.536" ry="26.9184" fill="#1F88F8" fill-opacity="0.35"/>
</g>
<path d="M185.032 289.402C264.948 289.402 329.733 224.617 329.733 144.701C329.733 64.7849 264.948 0 185.032 0C105.116 0 40.3311 64.7849 40.3311 144.701C40.3311 224.617 105.116 289.402 185.032 289.402Z" fill="url(#paint0_linear_476_6093)"/>
<g filter="url(#filter1_d_476_6093)">
<path d="M306.241 97.9264L182.242 184.462L58.2437 97.9264L171.755 18.6776C174.833 16.5321 178.495 15.3818 182.247 15.3818C186 15.3818 189.662 16.5321 192.74 18.6776L215.383 34.5068L221.311 38.6236L281.005 80.3064L287.293 84.7217L306.241 97.9264Z" fill="url(#paint1_linear_476_6093)"/>
</g>
<path d="M162.08 170.393L58.2437 244.228V97.9268L162.08 170.393Z" fill="url(#paint2_linear_476_6093)"/>
<g filter="url(#filter2_f_476_6093)">
<ellipse cx="242.827" cy="95.0386" rx="46.1458" ry="14.8326" fill="#FF4C77" fill-opacity="0.3"/>
</g>
<path d="M202.416 170.393L306.253 244.228V97.9268L202.416 170.393Z" fill="url(#paint3_linear_476_6093)"/>
<path d="M58.2437 244.228L171.621 163.621C174.724 161.411 178.438 160.224 182.247 160.224C186.057 160.224 189.771 161.411 192.874 163.621L306.241 244.228H58.2437Z" fill="url(#paint4_linear_476_6093)"/>
<path d="M241.283 76.8652C244.027 76.8652 245.943 74.9925 245.943 72.3794C245.943 69.7663 244.027 67.8935 241.283 67.8935C238.583 67.8935 236.623 69.7663 236.623 72.3794C236.623 74.9925 238.583 76.8652 241.283 76.8652ZM245.029 66.2821C245.029 63.2335 246.509 62.0576 248.774 60.8817C251.823 59.3138 254.087 56.7442 254.087 53.0859C254.087 47.6419 248.905 43.8093 241.98 43.8093C234.663 43.8093 229.437 48.1209 228.914 54.1747L237.32 55.699C237.625 52.9117 239.28 50.8647 241.632 50.8647C243.504 50.8647 244.941 52.1713 244.941 53.9569C244.941 55.7425 243.33 56.7442 241.936 57.6588C238.888 59.6622 237.581 61.9269 237.581 66.2821H245.029Z" fill="white"/>
<g filter="url(#filter3_d_476_6093)">
<path d="M71.3464 71.4165C52.3367 80.3088 31.909 85.7828 11 87.5873C13.8253 94.1548 33.8994 127.029 93.4899 154.117C95.1008 154.365 132.312 137.054 152.733 125.183C152.039 126.174 89.3016 103.089 71.3464 71.4165Z" fill="url(#paint5_linear_476_6093)"/>
</g>
<path d="M244.254 107.395C267.104 107.395 285.628 88.8715 285.628 66.0213C285.628 43.171 267.104 24.6472 244.254 24.6472C221.404 24.6472 202.88 43.171 202.88 66.0213C202.88 88.8715 221.404 107.395 244.254 107.395Z" fill="url(#paint6_linear_476_6093)"/>
<path d="M243.936 79.1578C247.434 79.1578 249.876 76.7704 249.876 73.4392C249.876 70.1079 247.434 67.7205 243.936 67.7205C240.493 67.7205 237.995 70.1079 237.995 73.4392C237.995 76.7704 240.493 79.1578 243.936 79.1578ZM248.711 65.6662C248.711 61.7797 250.598 60.2806 253.485 58.7816C257.372 56.7828 260.259 53.5071 260.259 48.8433C260.259 41.9031 253.652 37.0173 244.824 37.0173C235.497 37.0173 228.834 42.5139 228.168 50.2313L238.883 52.1746C239.272 48.6212 241.382 46.0117 244.38 46.0117C246.767 46.0117 248.599 47.6773 248.599 49.9537C248.599 52.2301 246.545 53.5071 244.769 54.673C240.882 57.227 239.216 60.1141 239.216 65.6662H248.711Z" fill="white"/>
<path d="M72.8186 87.7612C71.9438 87.1542 70.8358 86.9904 69.8228 87.3181L36.5633 98.0785C35.3719 98.464 34.9474 99.9315 35.7491 100.894C36.3946 101.668 37.4513 101.964 38.4053 101.637L72.5133 89.9548C73.4758 89.6251 73.6545 88.3411 72.8186 87.7612Z" fill="#C9DFFF"/>
<path d="M72.2396 101.014C71.396 100.222 70.1852 99.9579 69.0884 100.327L46.0634 108.076C45.0481 108.418 44.6896 109.67 45.3704 110.497C45.9267 111.173 46.8433 111.434 47.6718 111.152L71.826 102.927C72.6414 102.65 72.8676 101.604 72.2396 101.014Z" fill="#C9DFFF"/>
<path d="M84.6005 107.576C83.7202 106.871 82.5362 106.676 81.4763 107.061L54.9543 116.701C53.9133 117.079 53.6 118.4 54.3601 119.205C54.9416 119.822 55.8345 120.032 56.63 119.74L84.2707 109.597C85.13 109.282 85.3149 108.148 84.6005 107.576Z" fill="#C9DFFF"/>
<path d="M93.8699 127.473C93.0546 126.571 91.7697 126.263 90.6343 126.697L75.4769 132.481C74.5462 132.836 74.2106 133.981 74.8023 134.782C75.3569 135.533 76.3454 135.82 77.2159 135.483L93.4623 129.191C94.163 128.919 94.374 128.03 93.8699 127.473Z" fill="#C9DFFF"/>
<g filter="url(#filter4_d_476_6093)">
<path d="M291.088 117.262C314.138 128.044 338.908 134.682 364.262 136.87C360.836 144.834 336.495 184.696 264.238 217.541C262.284 217.842 217.163 196.851 192.401 182.457C193.243 183.659 269.316 155.667 291.088 117.262Z" fill="url(#paint7_linear_476_6093)"/>
</g>
<path d="M289.305 137.081C290.366 136.345 291.709 136.147 292.937 136.544L333.267 149.592C334.711 150.059 335.226 151.839 334.254 153.005C333.471 153.944 332.19 154.303 331.033 153.907L289.675 139.741C288.508 139.342 288.291 137.785 289.305 137.081Z" fill="#C9DFFF"/>
<path d="M278.013 147.821C279.036 146.861 280.504 146.541 281.834 146.988L309.753 156.385C310.985 156.799 311.419 158.318 310.594 159.321C309.919 160.14 308.808 160.456 307.803 160.114L278.515 150.142C277.526 149.805 277.252 148.536 278.013 147.821Z" fill="#C9DFFF"/>
<path d="M266.41 156.737C267.477 155.882 268.913 155.646 270.198 156.113L302.358 167.801C303.62 168.26 304 169.861 303.078 170.838C302.373 171.585 301.29 171.84 300.326 171.486L266.81 159.187C265.768 158.805 265.543 157.431 266.41 156.737Z" fill="#C9DFFF"/>
<path d="M240.298 174.576C241.286 173.483 242.845 173.109 244.221 173.635L262.601 180.648C263.729 181.079 264.136 182.467 263.418 183.439C262.746 184.35 261.547 184.698 260.492 184.289L240.792 176.659C239.942 176.33 239.687 175.251 240.298 174.576Z" fill="#C9DFFF"/>
<path d="M252.295 165.049C253.383 164.367 254.725 164.226 255.931 164.667L298.279 180.15C299.632 180.645 299.96 182.41 298.875 183.358C298.157 183.985 297.154 184.17 296.26 183.841L252.575 167.748C251.397 167.314 251.231 165.717 252.295 165.049Z" fill="#C9DFFF"/>
<path d="M103.045 111.925C102.147 111.362 101.04 111.246 100.046 111.61L65.1213 124.379C64.0051 124.787 63.7347 126.243 64.6298 127.024C65.2218 127.542 66.049 127.694 66.7866 127.422L102.813 114.151C103.785 113.793 103.922 112.475 103.045 111.925Z" fill="#C9DFFF"/>
<path d="M305.247 34.0599C305.247 37.586 302.388 40.4444 298.862 40.4444C295.336 40.4444 292.478 37.586 292.478 34.0599C292.478 30.5337 295.336 27.6753 298.862 27.6753C302.388 27.6753 305.247 30.5337 305.247 34.0599Z" stroke="url(#paint8_linear_476_6093)" stroke-width="2.61276"/>
<circle cx="84.6133" cy="258.197" r="6.38458" stroke="url(#paint9_linear_476_6093)" stroke-width="2.61276"/>
<circle cx="270.295" cy="270.283" r="6.38458" stroke="url(#paint10_linear_476_6093)" stroke-width="2.61276"/>
<path d="M105.654 38.0822C106.169 35.9492 109.203 35.9492 109.718 38.0822L112.514 49.6648C112.698 50.4271 113.293 51.0222 114.055 51.2062L125.638 54.0022C127.771 54.5171 127.771 57.551 125.638 58.0659L114.055 60.8619C113.293 61.0459 112.698 61.641 112.514 62.4032L109.718 73.9859C109.203 76.1189 106.169 76.1189 105.654 73.9859L102.858 62.4032C102.674 61.641 102.079 61.0459 101.317 60.8619L89.734 58.0659C87.601 57.551 87.601 54.5171 89.734 54.0022L101.317 51.2062C102.079 51.0222 102.674 50.4271 102.858 49.6648L105.654 38.0822Z" fill="url(#paint11_linear_476_6093)"/>
<path d="M325.809 229.188C326.324 227.055 329.358 227.055 329.873 229.188L332.669 240.771C332.853 241.533 333.448 242.128 334.21 242.312L345.793 245.108C347.926 245.623 347.926 248.657 345.793 249.172L334.21 251.968C333.448 252.152 332.853 252.747 332.669 253.509L329.873 265.092C329.358 267.225 326.324 267.225 325.809 265.092L323.013 253.509C322.829 252.747 322.234 252.152 321.471 251.968L309.889 249.172C307.756 248.657 307.756 245.623 309.889 245.108L321.471 242.312C322.234 242.128 322.829 241.533 323.013 240.771L325.809 229.188Z" fill="url(#paint12_linear_476_6093)"/>
<path d="M45.1888 210.067C46.5128 209.855 47.5698 211.156 47.0915 212.409L42.4548 224.55C41.9764 225.802 40.3214 226.067 39.4758 225.027L31.2797 214.941C30.4341 213.9 31.032 212.334 32.356 212.122L45.1888 210.067Z" fill="url(#paint13_linear_476_6093)"/>
<path d="M329.444 100.691C329.113 99.3922 330.312 98.2215 331.603 98.5843L344.115 102.1C345.406 102.463 345.82 104.087 344.86 105.024L335.56 114.101C334.6 115.038 332.986 114.584 332.655 113.285L329.444 100.691Z" fill="url(#paint14_linear_476_6093)"/>
<defs>
<filter id="filter0_f_476_6093" x="22.1899" y="186.981" width="322.618" height="97.3827" filterUnits="userSpaceOnUse" color-interpolation-filters="sRGB">
<feFlood flood-opacity="0" result="BackgroundImageFix"/>
<feBlend mode="normal" in="SourceGraphic" in2="BackgroundImageFix" result="shape"/>
<feGaussianBlur stdDeviation="10.8865" result="effect1_foregroundBlur_476_6093"/>
</filter>
<filter id="filter1_d_476_6093" x="54.76" y="15.3818" width="254.965" height="176.048" filterUnits="userSpaceOnUse" color-interpolation-filters="sRGB">
<feFlood flood-opacity="0" result="BackgroundImageFix"/>
<feColorMatrix in="SourceAlpha" type="matrix" values="0 0 0 0 0 0 0 0 0 0 0 0 0 0 0 0 0 0 127 0" result="hardAlpha"/>
<feOffset dy="3.48368"/>
<feGaussianBlur stdDeviation="1.74184"/>
<feComposite in2="hardAlpha" operator="out"/>
<feColorMatrix type="matrix" values="0 0 0 0 0 0 0 0 0 0 0 0 0 0 0 0 0 0 0.25 0"/>
<feBlend mode="normal" in2="BackgroundImageFix" result="effect1_dropShadow_476_6093"/>
<feBlend mode="normal" in="SourceGraphic" in2="effect1_dropShadow_476_6093" result="shape"/>
</filter>
<filter id="filter2_f_476_6093" x="174.909" y="58.4331" width="135.837" height="73.2112" filterUnits="userSpaceOnUse" color-interpolation-filters="sRGB">
<feFlood flood-opacity="0" result="BackgroundImageFix"/>
<feBlend mode="normal" in="SourceGraphic" in2="BackgroundImageFix" result="shape"/>
<feGaussianBlur stdDeviation="10.8865" result="effect1_foregroundBlur_476_6093"/>
</filter>
<filter id="filter3_d_476_6093" x="0.548963" y="64.4491" width="162.635" height="103.605" filterUnits="userSpaceOnUse" color-interpolation-filters="sRGB">
<feFlood flood-opacity="0" result="BackgroundImageFix"/>
<feColorMatrix in="SourceAlpha" type="matrix" values="0 0 0 0 0 0 0 0 0 0 0 0 0 0 0 0 0 0 127 0" result="hardAlpha"/>
<feOffset dy="3.48368"/>
<feGaussianBlur stdDeviation="5.22552"/>
<feComposite in2="hardAlpha" operator="out"/>
<feColorMatrix type="matrix" values="0 0 0 0 0.0196078 0 0 0 0 0.168627 0 0 0 0 0.396078 0 0 0 0.15 0"/>
<feBlend mode="normal" in2="BackgroundImageFix" result="effect1_dropShadow_476_6093"/>
<feBlend mode="normal" in="SourceGraphic" in2="effect1_dropShadow_476_6093" result="shape"/>
</filter>
<filter id="filter4_d_476_6093" x="172.316" y="115.52" width="201.472" height="129.894" filterUnits="userSpaceOnUse" color-interpolation-filters="sRGB">
<feFlood flood-opacity="0" result="BackgroundImageFix"/>
<feColorMatrix in="SourceAlpha" type="matrix" values="0 0 0 0 0 0 0 0 0 0 0 0 0 0 0 0 0 0 127 0" result="hardAlpha"/>
<feOffset dx="-5.28021" dy="13.0638"/>
<feGaussianBlur stdDeviation="7.40282"/>
<feComposite in2="hardAlpha" operator="out"/>
<feColorMatrix type="matrix" values="0 0 0 0 0.021441 0 0 0 0 0.168056 0 0 0 0 0.395833 0 0 0 0.15 0"/>
<feBlend mode="normal" in2="BackgroundImageFix" result="effect1_dropShadow_476_6093"/>
<feBlend mode="normal" in="SourceGraphic" in2="effect1_dropShadow_476_6093" result="shape"/>
</filter>
<linearGradient id="paint0_linear_476_6093" x1="183.917" y1="-47.1182" x2="186.881" y2="461.05" gradientUnits="userSpaceOnUse">
<stop stop-color="#CAE0FF" stop-opacity="0"/>
<stop offset="1" stop-color="#BCD8FF"/>
</linearGradient>
<linearGradient id="paint1_linear_476_6093" x1="182.242" y1="15.3818" x2="182.242" y2="184.462" gradientUnits="userSpaceOnUse">
<stop stop-color="#EDF4FF"/>
<stop offset="1" stop-color="#ABCCFF"/>
</linearGradient>
<linearGradient id="paint2_linear_476_6093" x1="110.162" y1="97.9268" x2="110.162" y2="244.228" gradientUnits="userSpaceOnUse">
<stop stop-color="#ABCCFF"/>
<stop offset="1" stop-color="#70A8FF"/>
</linearGradient>
<linearGradient id="paint3_linear_476_6093" x1="254.334" y1="97.9268" x2="254.334" y2="244.228" gradientUnits="userSpaceOnUse">
<stop stop-color="#ABCCFF"/>
<stop offset="1" stop-color="#70A8FF"/>
</linearGradient>
<linearGradient id="paint4_linear_476_6093" x1="182.242" y1="160.224" x2="182.242" y2="244.228" gradientUnits="userSpaceOnUse">
<stop stop-color="#70A8FF"/>
<stop offset="1" stop-color="#5597FD"/>
</linearGradient>
<linearGradient id="paint5_linear_476_6093" x1="26.3819" y1="108.223" x2="119.223" y2="90.0945" gradientUnits="userSpaceOnUse">
<stop stop-color="#C6DDFF"/>
<stop offset="1" stop-color="white"/>
</linearGradient>
<linearGradient id="paint6_linear_476_6093" x1="203.276" y1="30.2146" x2="285.679" y2="107.674" gradientUnits="userSpaceOnUse">
<stop stop-color="#FF698D"/>
<stop offset="1" stop-color="#FF3868"/>
</linearGradient>
<linearGradient id="paint7_linear_476_6093" x1="345.61" y1="161.892" x2="233.035" y2="139.91" gradientUnits="userSpaceOnUse">
<stop stop-color="#C6DDFF"/>
<stop offset="1" stop-color="white"/>
</linearGradient>
<linearGradient id="paint8_linear_476_6093" x1="289.409" y1="29.253" x2="313.443" y2="50.0827" gradientUnits="userSpaceOnUse">
<stop stop-color="#94BFFF"/>
<stop offset="1" stop-color="#4C94FE"/>
</linearGradient>
<linearGradient id="paint9_linear_476_6093" x1="75.1599" y1="253.39" x2="99.1941" y2="274.22" gradientUnits="userSpaceOnUse">
<stop stop-color="#94BFFF"/>
<stop offset="1" stop-color="#4C94FE"/>
</linearGradient>
<linearGradient id="paint10_linear_476_6093" x1="260.841" y1="265.476" x2="284.876" y2="286.305" gradientUnits="userSpaceOnUse">
<stop stop-color="#94BFFF"/>
<stop offset="1" stop-color="#4C94FE"/>
</linearGradient>
<linearGradient id="paint11_linear_476_6093" x1="107.686" y1="29.665" x2="107.686" y2="82.403" gradientUnits="userSpaceOnUse">
<stop stop-color="#70A8FF"/>
<stop offset="1" stop-color="#5597FD"/>
</linearGradient>
<linearGradient id="paint12_linear_476_6093" x1="327.841" y1="220.771" x2="327.841" y2="273.509" gradientUnits="userSpaceOnUse">
<stop stop-color="#70A8FF"/>
<stop offset="1" stop-color="#5597FD"/>
</linearGradient>
<linearGradient id="paint13_linear_476_6093" x1="48.1678" y1="209.59" x2="31.1144" y2="223.448" gradientUnits="userSpaceOnUse">
<stop stop-color="#70A8FF"/>
<stop offset="1" stop-color="#5597FD"/>
</linearGradient>
<linearGradient id="paint14_linear_476_6093" x1="328.699" y1="97.7681" x2="344.047" y2="113.494" gradientUnits="userSpaceOnUse">
<stop stop-color="#70A8FF"/>
<stop offset="1" stop-color="#5597FD"/>
</linearGradient>
</defs>
</svg>
