<svg width="20" height="20" viewBox="0 0 20 20" fill="none" xmlns="http://www.w3.org/2000/svg">
<path d="M12.5 18.9583H7.50002C2.97502 18.9583 1.04169 17.025 1.04169 12.5V7.49999C1.04169 2.97499 2.97502 1.04166 7.50002 1.04166H9.16669C9.50835 1.04166 9.79169 1.32499 9.79169 1.66666C9.79169 2.00832 9.50835 2.29166 9.16669 2.29166H7.50002C3.65835 2.29166 2.29169 3.65832 2.29169 7.49999V12.5C2.29169 16.3417 3.65835 17.7083 7.50002 17.7083H12.5C16.3417 17.7083 17.7084 16.3417 17.7084 12.5V10.8333C17.7084 10.4917 17.9917 10.2083 18.3334 10.2083C18.675 10.2083 18.9584 10.4917 18.9584 10.8333V12.5C18.9584 17.025 17.025 18.9583 12.5 18.9583Z" fill="#1C4FD1"/>
<path d="M7.08336 14.7417C6.57503 14.7417 6.10836 14.5583 5.76669 14.225C5.35836 13.8167 5.18336 13.225 5.27503 12.6L5.63336 10.0917C5.70003 9.60832 6.01669 8.98332 6.35836 8.64165L12.925 2.07499C14.5834 0.416655 16.2667 0.416655 17.925 2.07499C18.8334 2.98332 19.2417 3.90832 19.1584 4.83332C19.0834 5.58332 18.6834 6.31665 17.925 7.06665L11.3584 13.6333C11.0167 13.975 10.3917 14.2917 9.90836 14.3583L7.40003 14.7167C7.29169 14.7417 7.18336 14.7417 7.08336 14.7417ZM13.8084 2.95832L7.24169 9.52499C7.08336 9.68332 6.90003 10.05 6.86669 10.2667L6.50836 12.775C6.47503 13.0167 6.52503 13.2167 6.65003 13.3417C6.77503 13.4667 6.97503 13.5167 7.21669 13.4833L9.72503 13.125C9.94169 13.0917 10.3167 12.9083 10.4667 12.75L17.0334 6.18332C17.575 5.64165 17.8584 5.15832 17.9 4.70832C17.95 4.16665 17.6667 3.59165 17.0334 2.94999C15.7 1.61665 14.7834 1.99165 13.8084 2.95832Z" fill="#1C4FD1"/>
<path d="M16.5417 8.19167C16.4833 8.19167 16.425 8.18334 16.375 8.16667C14.1833 7.55 12.4417 5.80834 11.825 3.61667C11.7333 3.28334 11.925 2.94167 12.2583 2.84167C12.5917 2.75 12.9333 2.94167 13.025 3.275C13.525 5.05 14.9333 6.45834 16.7083 6.95834C17.0417 7.05 17.2333 7.4 17.1417 7.73334C17.0667 8.01667 16.8167 8.19167 16.5417 8.19167Z" fill="#1C4FD1"/>
</svg>
