<svg width="24" height="25" viewBox="0 0 24 25" fill="none" xmlns="http://www.w3.org/2000/svg">
<path d="M19.51 6.35L13.57 2.92C12.6 2.36 11.4 2.36 10.42 2.92L4.49001 6.35C3.52001 6.91 2.92001 7.95 2.92001 9.08V15.92C2.92001 17.04 3.52001 18.08 4.49001 18.65L10.43 22.08C11.4 22.64 12.6 22.64 13.58 22.08L19.52 18.65C20.49 18.09 21.09 17.05 21.09 15.92V9.08C21.08 7.95 20.48 6.92 19.51 6.35ZM12 7.84C13.29 7.84 14.33 8.88 14.33 10.17C14.33 11.46 13.29 12.5 12 12.5C10.71 12.5 9.67001 11.46 9.67001 10.17C9.67001 8.89 10.71 7.84 12 7.84ZM14.68 17.16H9.32001C8.51001 17.16 8.04001 16.26 8.49001 15.59C9.17001 14.58 10.49 13.9 12 13.9C13.51 13.9 14.83 14.58 15.51 15.59C15.96 16.25 15.48 17.16 14.68 17.16Z" fill="#858DA3"/>
</svg>
