<svg width="20" height="20" viewBox="0 0 20 20" fill="none" xmlns="http://www.w3.org/2000/svg">
<path fill-rule="evenodd" clip-rule="evenodd" d="M13 2.2H7C4.34903 2.2 2.2 4.34903 2.2 7V13C2.2 15.651 4.34903 17.8 7 17.8H13C15.651 17.8 17.8 15.651 17.8 13V7C17.8 4.34903 15.651 2.2 13 2.2ZM7 1C3.68629 1 1 3.68629 1 7V13C1 16.3137 3.68629 19 7 19H13C16.3137 19 19 16.3137 19 13V7C19 3.68629 16.3137 1 13 1H7Z" fill="#1C4FD1"/>
<path d="M9.44444 5.6C9.44444 5.26863 9.71307 5 10.0444 5C10.3758 5 10.6444 5.26863 10.6444 5.6V14.4C10.6444 14.7314 10.3758 15 10.0444 15C9.71307 15 9.44444 14.7314 9.44444 14.4V5.6Z" fill="#1C4FD1"/>
<path d="M14.4 9.44444C14.7314 9.44444 15 9.71307 15 10.0444C15 10.3758 14.7314 10.6444 14.4 10.6444H5.6C5.26863 10.6444 5 10.3758 5 10.0444C5 9.71307 5.26863 9.44444 5.6 9.44444L14.4 9.44444Z" fill="#1C4FD1"/>
</svg>
