<svg width="20" height="20" viewBox="0 0 20 20" fill="none" xmlns="http://www.w3.org/2000/svg">
<path d="M12.5 18.9583H7.50002C2.97502 18.9583 1.04169 17.025 1.04169 12.5V7.49996C1.04169 2.97496 2.97502 1.04163 7.50002 1.04163H12.5C17.025 1.04163 18.9584 2.97496 18.9584 7.49996V12.5C18.9584 17.025 17.025 18.9583 12.5 18.9583ZM7.50002 2.29163C3.65835 2.29163 2.29169 3.65829 2.29169 7.49996V12.5C2.29169 16.3416 3.65835 17.7083 7.50002 17.7083H12.5C16.3417 17.7083 17.7084 16.3416 17.7084 12.5V7.49996C17.7084 3.65829 16.3417 2.29163 12.5 2.29163H7.50002Z" fill="white"/>
<path d="M8.81664 12.9833C8.64997 12.9833 8.49164 12.9166 8.37497 12.8L6.01664 10.4416C5.77497 10.2 5.77497 9.79996 6.01664 9.55829C6.2583 9.31663 6.6583 9.31663 6.89997 9.55829L8.81664 11.475L13.1 7.19163C13.3416 6.94996 13.7416 6.94996 13.9833 7.19163C14.225 7.43329 14.225 7.83329 13.9833 8.07496L9.2583 12.8C9.14164 12.9166 8.9833 12.9833 8.81664 12.9833Z" fill="white"/>
</svg>
