<svg width="20" height="20" viewBox="0 0 20 20" fill="none" xmlns="http://www.w3.org/2000/svg">
<path d="M7.63302 9.68329C7.60802 9.68329 7.59135 9.68329 7.56635 9.68329C7.52468 9.67496 7.46635 9.67496 7.41635 9.68329C4.99968 9.60829 3.17468 7.70829 3.17468 5.36663C3.17468 2.98329 5.11635 1.04163 7.49968 1.04163C9.88302 1.04163 11.8247 2.98329 11.8247 5.36663C11.8163 7.70829 9.98302 9.60829 7.65802 9.68329C7.64968 9.68329 7.64135 9.68329 7.63302 9.68329ZM7.49968 2.29163C5.80802 2.29163 4.42468 3.67496 4.42468 5.36663C4.42468 7.03329 5.72468 8.37496 7.38302 8.43329C7.43302 8.42496 7.54135 8.42496 7.64968 8.43329C9.28302 8.35829 10.5663 7.01663 10.5747 5.36663C10.5747 3.67496 9.19135 2.29163 7.49968 2.29163Z" fill="white"/>
<path d="M13.783 9.79171C13.758 9.79171 13.733 9.79171 13.708 9.78337C13.3663 9.81671 13.0163 9.57504 12.983 9.23337C12.9496 8.89171 13.158 8.58337 13.4996 8.54171C13.5996 8.53337 13.708 8.53337 13.7996 8.53337C15.0163 8.46671 15.9663 7.46671 15.9663 6.24171C15.9663 4.97504 14.9413 3.95004 13.6746 3.95004C13.333 3.95837 13.0496 3.67504 13.0496 3.33337C13.0496 2.99171 13.333 2.70837 13.6746 2.70837C15.6246 2.70837 17.2163 4.30004 17.2163 6.25004C17.2163 8.16671 15.7163 9.71671 13.808 9.79171C13.7996 9.79171 13.7913 9.79171 13.783 9.79171Z" fill="white"/>
<path d="M7.64134 18.7917C6.00801 18.7917 4.36634 18.375 3.12467 17.5417C1.96634 16.775 1.33301 15.725 1.33301 14.5834C1.33301 13.4417 1.96634 12.3834 3.12467 11.6084C5.62467 9.95004 9.67467 9.95004 12.158 11.6084C13.308 12.375 13.9497 13.425 13.9497 14.5667C13.9497 15.7084 13.3163 16.7667 12.158 17.5417C10.908 18.375 9.27467 18.7917 7.64134 18.7917ZM3.81634 12.6584C3.01634 13.1917 2.58301 13.875 2.58301 14.5917C2.58301 15.3 3.02467 15.9834 3.81634 16.5084C5.89134 17.9 9.39134 17.9 11.4663 16.5084C12.2663 15.975 12.6997 15.2917 12.6997 14.575C12.6997 13.8667 12.258 13.1834 11.4663 12.6584C9.39134 11.275 5.89134 11.275 3.81634 12.6584Z" fill="white"/>
<path d="M15.283 17.2917C14.9913 17.2917 14.733 17.0917 14.6746 16.7917C14.608 16.45 14.8246 16.125 15.158 16.05C15.683 15.9417 16.1663 15.7333 16.5413 15.4417C17.0163 15.0833 17.2746 14.6333 17.2746 14.1583C17.2746 13.6833 17.0163 13.2333 16.5496 12.8833C16.183 12.6 15.7246 12.4 15.183 12.275C14.8496 12.2 14.633 11.8667 14.708 11.525C14.783 11.1917 15.1163 10.975 15.458 11.05C16.1746 11.2083 16.7996 11.4917 17.308 11.8833C18.083 12.4667 18.5246 13.2917 18.5246 14.1583C18.5246 15.025 18.0746 15.85 17.2996 16.4417C16.783 16.8417 16.133 17.1333 15.4163 17.275C15.3663 17.2917 15.3246 17.2917 15.283 17.2917Z" fill="white"/>
</svg>
