<svg width="20" height="20" viewBox="0 0 20 20" fill="none" xmlns="http://www.w3.org/2000/svg">
<path d="M9.99998 10.625C7.35831 10.625 5.20831 8.47496 5.20831 5.83329C5.20831 3.19163 7.35831 1.04163 9.99998 1.04163C12.6416 1.04163 14.7916 3.19163 14.7916 5.83329C14.7916 8.47496 12.6416 10.625 9.99998 10.625ZM9.99998 2.29163C8.04998 2.29163 6.45831 3.88329 6.45831 5.83329C6.45831 7.78329 8.04998 9.37496 9.99998 9.37496C11.95 9.37496 13.5416 7.78329 13.5416 5.83329C13.5416 3.88329 11.95 2.29163 9.99998 2.29163Z" fill="white"/>
<path d="M13.1834 18.9583C12.8667 18.9583 12.5667 18.8416 12.35 18.625C12.0917 18.3666 11.975 17.9916 12.0334 17.6L12.1917 16.475C12.2334 16.1833 12.4084 15.8416 12.6167 15.625L15.5667 12.675C16.75 11.4917 17.7917 12.1667 18.3 12.675C18.7334 13.1083 18.9584 13.575 18.9584 14.0416C18.9584 14.5166 18.7417 14.9583 18.3 15.4L15.35 18.35C15.1417 18.5583 14.7917 18.7333 14.5 18.775L13.375 18.9333C13.3083 18.95 13.25 18.9583 13.1834 18.9583ZM16.925 13.2666C16.775 13.2666 16.6417 13.3667 16.45 13.5583L13.5 16.5083C13.475 16.5333 13.4334 16.6166 13.4334 16.65L13.2834 17.6916L14.325 17.5416C14.3584 17.5333 14.4417 17.4917 14.4667 17.4667L17.4167 14.5166C17.55 14.3833 17.7084 14.1916 17.7084 14.0416C17.7084 13.9166 17.6084 13.7417 17.4167 13.5583C17.2167 13.3583 17.0667 13.2666 16.925 13.2666Z" fill="white"/>
<path d="M17.4334 16.0167C17.3751 16.0167 17.3167 16.0084 17.2667 15.9917C16.1667 15.6834 15.2917 14.8084 14.9834 13.7084C14.8917 13.375 15.0834 13.0334 15.4167 12.9417C15.7501 12.85 16.0917 13.0417 16.1834 13.375C16.3751 14.0583 16.9167 14.6 17.6001 14.7917C17.9334 14.8833 18.1251 15.2333 18.0334 15.5583C17.9584 15.8333 17.7084 16.0167 17.4334 16.0167Z" fill="white"/>
<path d="M2.8418 18.9583C2.50013 18.9583 2.2168 18.675 2.2168 18.3333C2.2168 14.775 5.70849 11.875 10.0002 11.875C10.9085 11.875 11.8085 12.0084 12.6501 12.2584C12.9835 12.3584 13.1668 12.7083 13.0668 13.0333C12.9668 13.3667 12.6168 13.55 12.2918 13.45C11.5585 13.2333 10.7918 13.1167 10.0002 13.1167C6.40015 13.1167 3.4668 15.45 3.4668 18.325C3.4668 18.675 3.18346 18.9583 2.8418 18.9583Z" fill="white"/>
</svg>
