<svg width="20" height="20" viewBox="0 0 20 20" fill="none" xmlns="http://www.w3.org/2000/svg">
<path d="M10 19.0083C9.42502 19.0083 8.88335 18.7166 8.50002 18.2083L7.25002 16.5416C7.22502 16.5083 7.12502 16.4666 7.08335 16.4583H6.66669C3.19169 16.4583 1.04169 15.5166 1.04169 10.8333V6.66663C1.04169 2.98329 2.98335 1.04163 6.66669 1.04163H13.3334C17.0167 1.04163 18.9584 2.98329 18.9584 6.66663V10.8333C18.9584 14.5166 17.0167 16.4583 13.3334 16.4583H12.9167C12.85 16.4583 12.7917 16.4916 12.75 16.5416L11.5 18.2083C11.1167 18.7166 10.575 19.0083 10 19.0083ZM6.66669 2.29163C3.68335 2.29163 2.29169 3.68329 2.29169 6.66663V10.8333C2.29169 14.6 3.58335 15.2083 6.66669 15.2083H7.08335C7.50835 15.2083 7.99169 15.45 8.25002 15.7916L9.50002 17.4583C9.79169 17.8416 10.2084 17.8416 10.5 17.4583L11.75 15.7916C12.025 15.425 12.4584 15.2083 12.9167 15.2083H13.3334C16.3167 15.2083 17.7084 13.8166 17.7084 10.8333V6.66663C17.7084 3.68329 16.3167 2.29163 13.3334 2.29163H6.66669Z" fill="white"/>
<path d="M10 10C9.53335 10 9.16669 9.62504 9.16669 9.16671C9.16669 8.70837 9.54169 8.33337 10 8.33337C10.4584 8.33337 10.8334 8.70837 10.8334 9.16671C10.8334 9.62504 10.4667 10 10 10Z" fill="white"/>
<path d="M13.3333 10C12.8667 10 12.5 9.62504 12.5 9.16671C12.5 8.70837 12.875 8.33337 13.3333 8.33337C13.7917 8.33337 14.1667 8.70837 14.1667 9.16671C14.1667 9.62504 13.8 10 13.3333 10Z" fill="white"/>
<path d="M6.66665 10C6.19998 10 5.83331 9.62504 5.83331 9.16671C5.83331 8.70837 6.20831 8.33337 6.66665 8.33337C7.12498 8.33337 7.49998 8.70837 7.49998 9.16671C7.49998 9.62504 7.13331 10 6.66665 10Z" fill="white"/>
</svg>
