<svg width="315" height="334" viewBox="0 0 315 334" fill="none" xmlns="http://www.w3.org/2000/svg">
<g filter="url(#filter0_f_481_4733)">
<ellipse cx="152.904" cy="285.381" rx="114.524" ry="26.619" fill="#FFEBE7"/>
</g>
<path d="M154.393 306.308C232.823 306.308 296.403 242.727 296.403 164.297C296.403 85.8665 232.823 22.2861 154.393 22.2861C75.9622 22.2861 12.3818 85.8665 12.3818 164.297C12.3818 242.727 75.9622 306.308 154.393 306.308Z" fill="url(#paint0_linear_481_4733)"/>
<path d="M224.808 40.8574H81.8119C76.4911 40.8574 71.3883 42.9711 67.626 46.7334C63.8637 50.4957 61.75 55.5986 61.75 60.9193V223.866H61.9952V281.087C61.995 283.297 62.561 285.469 63.6393 287.398C64.7175 289.326 66.2719 290.946 68.1542 292.103C70.0366 293.26 72.1839 293.915 74.3915 294.006C76.599 294.097 78.7931 293.621 80.7642 292.623L146.723 259.186C148.52 258.285 150.503 257.816 152.513 257.816C154.524 257.816 156.506 258.285 158.303 259.186L226.291 292.868C228.263 293.845 230.453 294.303 232.651 294.197C234.85 294.092 236.986 293.426 238.855 292.264C240.725 291.102 242.267 289.482 243.335 287.557C244.403 285.633 244.963 283.467 244.96 281.266L244.781 223.866V60.8636C244.767 55.5679 242.659 50.4928 238.917 46.7451C235.176 42.9973 230.104 40.8809 224.808 40.8574Z" fill="url(#paint1_linear_481_4733)"/>
<path d="M314.475 93.6314C314.48 97.9682 312.907 102.159 310.05 105.422C307.193 108.684 303.247 110.797 298.948 111.365C298.162 111.465 297.37 111.516 296.578 111.519H237.078C235.788 111.516 234.499 111.41 233.225 111.201C227.756 110.257 222.829 107.324 219.393 102.966C215.957 98.6071 214.254 93.1317 214.613 87.5932C214.972 82.0548 217.366 76.8447 221.336 72.9659C225.306 69.0872 230.57 66.8138 236.115 66.5835C238.989 60.3429 243.814 55.2061 249.863 51.948C255.912 48.6899 262.857 47.4872 269.649 48.5212C276.441 49.5552 282.713 52.7699 287.519 57.6804C292.324 62.5909 295.402 68.9308 296.289 75.7439H296.559C298.91 75.7401 301.239 76.2 303.413 77.0972C305.586 77.9945 307.562 79.3115 309.226 80.9728C310.89 82.6342 312.21 84.6074 313.111 86.7795C314.012 88.9516 314.475 91.28 314.475 93.6314Z" fill="url(#paint2_linear_481_4733)"/>
<path d="M11.916 58.5962C11.916 62.1728 13.3368 65.6029 15.8658 68.1319C18.3948 70.6609 21.8249 72.0817 25.4015 72.0817H70.1732C74.5845 72.0583 78.8123 70.3135 81.9561 67.2189C85.0999 64.1244 86.9112 59.9246 87.0041 55.5142C87.0971 51.1038 85.4643 46.8315 82.4536 43.6072C79.443 40.3829 75.2924 38.4616 70.886 38.2525C68.7127 33.5714 65.0798 29.7217 60.5325 27.2811C55.9851 24.8404 50.7688 23.9407 45.6667 24.7169C40.5645 25.493 35.8517 27.9033 32.2359 31.5857C28.6201 35.2682 26.2963 40.0242 25.6134 45.1397H25.4111C21.8379 45.1371 18.4097 46.5528 15.8794 49.0758C13.3492 51.5989 11.9237 55.023 11.916 58.5962Z" fill="url(#paint3_linear_481_4733)"/>
<g filter="url(#filter1_f_481_4733)">
<ellipse cx="159.235" cy="192.127" rx="64.5546" ry="13.8331" fill="#FF7C86" fill-opacity="0.39"/>
</g>
<path d="M180.092 90.3611C169.261 90.3611 159.566 95.6271 153.522 103.706C147.478 95.6271 137.784 90.3611 126.953 90.3611C108.582 90.3611 93.6812 105.321 93.6812 123.812C93.6812 130.933 94.8181 137.516 96.7929 143.62C106.248 173.54 135.391 191.433 149.812 196.34C151.847 197.058 155.198 197.058 157.233 196.34C171.654 191.433 200.797 173.54 210.252 143.62C212.227 137.516 213.364 130.933 213.364 123.812C213.364 105.321 198.463 90.3611 180.092 90.3611Z" fill="url(#paint4_linear_481_4733)"/>
<path d="M2.34325e-05 231.015C-0.00211197 235.334 1.56595 239.506 4.41205 242.754C7.25814 246.003 11.1881 248.106 15.4698 248.671C16.2485 248.779 17.0338 248.834 17.8201 248.835H77.0597C78.3505 248.833 79.6391 248.727 80.9127 248.517C86.3896 247.605 91.3326 244.692 94.7826 240.341C98.2326 235.991 99.9435 230.514 99.5835 224.973C99.2235 219.433 96.8182 214.223 92.8343 210.356C88.8503 206.489 83.5718 204.239 78.023 204.044C75.1575 197.834 70.3513 192.723 64.3286 189.482C58.3059 186.24 51.3929 185.044 44.6314 186.074C37.8698 187.103 31.6259 190.302 26.8404 195.188C22.055 200.075 18.9872 206.384 18.0994 213.166H17.8201C15.4775 213.166 13.1579 213.628 10.994 214.525C8.83005 215.422 6.86429 216.738 5.20917 218.395C3.55405 220.053 2.24203 222.021 1.34819 224.187C0.454351 226.352 -0.00377537 228.672 2.34325e-05 231.015Z" fill="url(#paint5_linear_481_4733)"/>
<path d="M266.67 131.871C266.355 130.636 267.495 129.524 268.722 129.869L280.288 133.119C281.515 133.464 281.908 135.007 280.996 135.897L272.399 144.288C271.487 145.178 269.953 144.747 269.638 143.513L266.67 131.871Z" fill="#FFBEBD"/>
<path d="M29.9681 131.871C29.6533 130.636 30.7932 129.524 32.0199 129.869L43.5858 133.119C44.8125 133.464 45.206 135.007 44.2942 135.897L35.6964 144.288C34.7845 145.178 33.2512 144.747 32.9363 143.513L29.9681 131.871Z" fill="#FFBEBD"/>
<path d="M110.168 7.99867C110.658 5.97173 113.541 5.97173 114.03 7.99866L116.596 18.6302C116.771 19.3546 117.337 19.9201 118.061 20.095L128.693 22.6614C130.72 23.1507 130.72 26.0338 128.693 26.523L118.061 29.0895C117.337 29.2643 116.771 29.8299 116.596 30.5542L114.03 41.1858C113.541 43.2127 110.658 43.2127 110.168 41.1858L107.602 30.5542C107.427 29.8299 106.861 29.2643 106.137 29.0895L95.5055 26.5231C93.4786 26.0338 93.4786 23.1507 95.5055 22.6614L106.137 20.095C106.861 19.9201 107.427 19.3546 107.602 18.6302L110.168 7.99867Z" fill="#FFBEBD"/>
<path d="M165.168 280.761C165.168 284.036 162.512 286.692 159.236 286.692C155.96 286.692 153.305 284.036 153.305 280.761C153.305 277.485 155.96 274.829 159.236 274.829C162.512 274.829 165.168 277.485 165.168 280.761Z" stroke="#FFBEBD" stroke-width="2.48287"/>
<path d="M265.92 232.402C266.409 230.376 269.293 230.376 269.782 232.402L272.348 243.034C272.523 243.758 273.089 244.324 273.813 244.499L284.445 247.065C286.471 247.554 286.471 250.438 284.445 250.927L273.813 253.493C273.089 253.668 272.523 254.234 272.348 254.958L269.782 265.59C269.293 267.617 266.409 267.617 265.92 265.59L263.354 254.958C263.179 254.234 262.613 253.668 261.889 253.493L251.257 250.927C249.231 250.438 249.231 247.554 251.257 247.065L261.889 244.499C262.613 244.324 263.179 243.758 263.354 243.034L265.92 232.402Z" fill="#FFBEBD"/>
<circle cx="275.023" cy="198.787" r="5.9313" stroke="#FC9999" stroke-width="2.48287"/>
<defs>
<filter id="filter0_f_481_4733" x="16.6069" y="236.989" width="272.593" height="96.784" filterUnits="userSpaceOnUse" color-interpolation-filters="sRGB">
<feFlood flood-opacity="0" result="BackgroundImageFix"/>
<feBlend mode="normal" in="SourceGraphic" in2="BackgroundImageFix" result="shape"/>
<feGaussianBlur stdDeviation="10.8865" result="effect1_foregroundBlur_481_4733"/>
</filter>
<filter id="filter1_f_481_4733" x="73.9896" y="157.603" width="170.491" height="69.0474" filterUnits="userSpaceOnUse" color-interpolation-filters="sRGB">
<feFlood flood-opacity="0" result="BackgroundImageFix"/>
<feBlend mode="normal" in="SourceGraphic" in2="BackgroundImageFix" result="shape"/>
<feGaussianBlur stdDeviation="10.3453" result="effect1_foregroundBlur_481_4733"/>
</filter>
<linearGradient id="paint0_linear_481_4733" x1="153.298" y1="-23.9561" x2="156.207" y2="474.764" gradientUnits="userSpaceOnUse">
<stop stop-color="#FFE1E1" stop-opacity="0"/>
<stop offset="1" stop-color="#FFE1E0"/>
</linearGradient>
<linearGradient id="paint1_linear_481_4733" x1="289.533" y1="307.26" x2="69.8861" y2="109.905" gradientUnits="userSpaceOnUse">
<stop stop-color="#FF9999"/>
<stop offset="1" stop-color="#FFE7DA"/>
</linearGradient>
<linearGradient id="paint2_linear_481_4733" x1="295.515" y1="138.844" x2="245.819" y2="48.1604" gradientUnits="userSpaceOnUse">
<stop stop-color="#FFBEBD"/>
<stop offset="1" stop-color="#FFF6F5"/>
</linearGradient>
<linearGradient id="paint3_linear_481_4733" x1="72.7577" y1="92.6262" x2="35.3865" y2="24.456" gradientUnits="userSpaceOnUse">
<stop stop-color="#FFBEBD"/>
<stop offset="1" stop-color="#FFF6F5"/>
</linearGradient>
<linearGradient id="paint4_linear_481_4733" x1="103.337" y1="118.938" x2="313.385" y2="206.957" gradientUnits="userSpaceOnUse">
<stop stop-color="#FFDEAC"/>
<stop offset="0.70369" stop-color="#FF426F"/>
</linearGradient>
<linearGradient id="paint5_linear_481_4733" x1="80.7237" y1="276.058" x2="31.2395" y2="185.674" gradientUnits="userSpaceOnUse">
<stop stop-color="#FFBEBD"/>
<stop offset="1" stop-color="#FFF6F5"/>
</linearGradient>
</defs>
</svg>
