<svg width="589" height="406" viewBox="0 0 589 406" fill="none" xmlns="http://www.w3.org/2000/svg">
<path d="M562.724 404.22C525.628 404.22 24.0922 403.147 24.0922 403.087C23.8844 402.605 -39.5751 325.394 40.3338 244.669C79.929 204.67 3.97287 152.85 40.3338 108.356C102.619 32.1414 164.246 75.0648 215.585 53.6292C224.657 49.8446 233.759 43.7563 242.871 34.4102C248 29.1545 253.62 24.5597 259.638 20.5912C260.562 19.9798 261.493 19.3834 262.435 18.8044C266.037 16.5853 269.774 14.5799 273.622 12.7758C276.208 11.5656 278.839 10.4474 281.522 9.4186H281.525C285.781 7.78595 290.154 6.37696 294.62 5.18665C300.961 3.49436 307.492 2.23446 314.151 1.38211C317.055 1.00687 319.984 0.713645 322.933 0.49248C380.299 -3.78917 444.855 20.2905 478.172 55.4855C484.878 62.5727 515.379 99.2414 491.337 149.645C476.157 181.468 539.751 211.859 562.349 248.2C619.803 340.59 563.245 403.015 562.724 404.22Z" fill="#EBF3FA"/>
<path d="M244.81 247.243L232.351 394.305C232.351 394.305 231.047 403.219 237.726 403.237C248.708 403.261 292.393 403.237 292.393 403.237C292.393 403.237 284.127 401.38 284.228 397.205C284.345 392.285 298.789 245.852 298.789 245.852L244.81 247.243Z" fill="#7599EA"/>
<path d="M296.505 400.627C294.345 400.634 252.054 400.704 241.357 400.567C236.696 400.51 235.877 396.452 235.84 393.828C235.82 392.57 235.982 391.639 235.982 391.639L236.305 387.817L237.131 378.075L237.86 369.467L238.799 358.407L239.587 349.071L248.441 244.571L302.421 243.18C302.421 243.18 296.338 304.462 292.034 349.068C291.554 354.038 291.098 358.804 290.675 363.252C290.537 364.674 290.407 366.06 290.277 367.412C289.879 371.632 289.514 375.508 289.196 378.93C289.028 380.734 288.873 382.409 288.735 383.945C288.187 389.961 287.864 393.803 287.859 394.534C287.856 394.959 287.894 395.356 287.964 395.724C288.85 400.416 295.694 400.627 296.505 400.627Z" fill="#90AFF4"/>
<path d="M113.721 167.216L144.071 288.233L148.227 304.805L162.36 361.17H424.973L372.873 167.216H113.721Z" fill="#AEC3FF"/>
<path d="M113.721 167.216L109.516 168.607L156.771 365.38L162.364 361.17L113.721 167.216Z" fill="#90AFF4"/>
<path d="M156.771 365.379H417.767L424.974 361.17H162.364L156.771 365.379Z" fill="#7599EA"/>
<path d="M248.423 403.293H304.934V400.627H248.423V403.293Z" fill="#AEC3FF"/>
<path d="M290.569 365.38L290.276 367.418L237.133 378.076L237.861 369.468L238.209 365.38H290.569Z" fill="#5888DD"/>
<path opacity="0.4" d="M296.504 400.627C294.343 400.634 252.052 400.704 241.355 400.567C236.694 400.51 235.875 396.452 235.838 393.828L288.731 383.95C288.183 389.966 287.86 393.808 287.855 394.539C287.852 394.964 287.89 395.361 287.96 395.729C288.848 400.416 295.693 400.627 296.504 400.627Z" fill="#5888DD"/>
<path d="M113.721 167.216H372.873L414.919 323.095H152.813L113.721 167.216Z" fill="#AEC3FF"/>
<path d="M402.698 316.339H160.052L151.381 282.051L148.026 268.783L146.66 263.373L137.748 228.136L137.285 226.302L132.576 207.675L130.468 199.342L128.671 192.233L124.455 175.568H363.601L368.23 192.233L370.205 199.342L372.518 207.675L387.766 262.581V262.583L389.057 267.235L389.658 269.395L400.187 307.298L402.698 316.339Z" fill="#739AF0"/>
<path d="M368.23 192.232H128.671L124.455 175.565H363.604L368.23 192.232Z" fill="#607CF4"/>
<path d="M134.35 183.097C134.062 181.947 134.765 181.015 135.924 181.015C137.083 181.015 138.257 181.947 138.545 183.097C138.833 184.248 138.13 185.18 136.971 185.18C135.814 185.182 134.64 184.248 134.35 183.097Z" fill="#E9F3FE"/>
<path d="M141.324 183.097C141.036 181.947 141.74 181.015 142.899 181.015C144.058 181.015 145.232 181.947 145.52 183.097C145.808 184.248 145.104 185.18 143.945 185.18C142.789 185.182 141.615 184.248 141.324 183.097Z" fill="#E9F3FE"/>
<path d="M148.834 183.097C148.546 181.947 149.25 181.015 150.409 181.015C151.568 181.015 152.742 181.947 153.03 183.097C153.317 184.248 152.614 185.18 151.455 185.18C150.296 185.182 149.122 184.248 148.834 183.097Z" fill="#E9F3FE"/>
<path d="M228.802 148.296C231.007 137.061 232.401 116.197 234.732 104.607C235.213 102.221 232.647 100.388 230.511 101.58L218.205 108.459L215.031 75.9152C214.896 74.5261 212.865 74.4938 212.685 75.8779L205.773 128.856C205.573 130.401 207.336 131.433 208.6 130.506L221.564 121.015L226.098 148.251C226.351 149.752 228.509 149.787 228.802 148.296Z" fill="#AEC3FF"/>
<path d="M584.65 405.15H4.29237C3.89434 405.15 3.56641 404.827 3.56641 404.43V404.015C3.56641 403.619 3.89184 403.294 4.29237 403.294H584.653C585.051 403.294 585.379 403.617 585.379 404.015V404.43C585.376 404.825 585.051 405.15 584.65 405.15Z" fill="#233862"/>
</svg>
