<svg width="270" height="257" viewBox="0 0 270 257" fill="none" xmlns="http://www.w3.org/2000/svg">
<path d="M242.298 230.658L31.4597 248.292C15.4509 249.631 3.86541 233.429 10.4191 218.869L99.7431 20.4248C106.52 5.37066 127.35 3.62867 136.567 17.3459L258.081 198.157C266.998 211.422 258.307 229.319 242.298 230.658Z" fill="#E6EFFF"/>
<path d="M242.968 238.573L32.1296 256.207C21.7608 257.074 11.9728 252.564 5.94973 244.139C-0.0732847 235.715 -1.13469 225.057 3.11096 215.627L92.4349 17.182C96.8232 7.43085 105.845 1.07422 116.567 0.177134C127.289 -0.719951 137.255 4.04876 143.225 12.9351L264.739 193.746C270.514 202.339 271.266 213.025 266.747 222.329C262.226 231.633 253.337 237.706 242.968 238.573ZM117.911 16.0091C113.085 16.4116 109.024 19.2743 107.049 23.6629L17.7254 222.108C15.8154 226.352 16.2935 231.15 19.0046 234.94C21.7157 238.732 26.1216 240.762 30.7878 240.372L241.626 222.739C246.292 222.349 250.295 219.615 252.328 215.428C254.361 211.241 254.025 206.43 251.424 202.563L129.91 21.7519C127.221 17.7535 122.735 15.6065 117.911 16.0091Z" fill="#F77D48"/>
<path d="M112.969 200.297C112.741 197.6 113.012 195.066 113.79 192.695C114.566 190.327 115.768 188.23 117.398 186.406C119.027 184.584 121.045 183.096 123.456 181.947C125.864 180.802 128.63 180.094 131.752 179.833C134.871 179.572 137.74 179.808 140.348 180.533C142.959 181.262 145.222 182.392 147.135 183.918C149.05 185.446 150.587 187.315 151.751 189.519C152.915 191.728 153.611 194.179 153.841 196.877C154.069 199.574 153.794 202.088 153.015 204.417C152.237 206.748 151.032 208.823 149.403 210.647C147.773 212.471 145.733 213.959 143.282 215.11C140.831 216.26 138.045 216.969 134.923 217.229C131.802 217.49 128.956 217.254 126.39 216.524C123.821 215.793 121.581 214.662 119.666 213.134C117.753 211.608 116.214 209.762 115.055 207.593C113.893 205.426 113.2 202.993 112.969 200.297ZM145.568 162.433L115.197 164.972L102.152 62.3245L141.127 59.0642L145.568 162.433Z" fill="#F77D48"/>
</svg>
