<svg width="25" height="24" viewBox="0 0 25 24" fill="none" xmlns="http://www.w3.org/2000/svg">
<path d="M20.4633 9.21994C18.6533 9.21994 17.9133 7.93994 18.8133 6.36994C19.3333 5.45994 19.0233 4.29994 18.1133 3.77994L16.3833 2.78994C15.5933 2.31994 14.5733 2.59994 14.1033 3.38994L13.9933 3.57994C13.0933 5.14994 11.6133 5.14994 10.7033 3.57994L10.5933 3.38994C10.1433 2.59994 9.12328 2.31994 8.33328 2.78994L6.60328 3.77994C5.69328 4.29994 5.38328 5.46994 5.90328 6.37994C6.81328 7.93994 6.07328 9.21994 4.26328 9.21994C3.22328 9.21994 2.36328 10.0699 2.36328 11.1199V12.8799C2.36328 13.9199 3.21328 14.7799 4.26328 14.7799C6.07328 14.7799 6.81328 16.0599 5.90328 17.6299C5.38328 18.5399 5.69328 19.6999 6.60328 20.2199L8.33328 21.2099C9.12328 21.6799 10.1433 21.3999 10.6133 20.6099L10.7233 20.4199C11.6233 18.8499 13.1033 18.8499 14.0133 20.4199L14.1233 20.6099C14.5933 21.3999 15.6133 21.6799 16.4033 21.2099L18.1333 20.2199C19.0433 19.6999 19.3533 18.5299 18.8333 17.6299C17.9233 16.0599 18.6633 14.7799 20.4733 14.7799C21.5133 14.7799 22.3733 13.9299 22.3733 12.8799V11.1199C22.3633 10.0799 21.5133 9.21994 20.4633 9.21994ZM12.3633 15.2499C10.5733 15.2499 9.11328 13.7899 9.11328 11.9999C9.11328 10.2099 10.5733 8.74994 12.3633 8.74994C14.1533 8.74994 15.6133 10.2099 15.6133 11.9999C15.6133 13.7899 14.1533 15.2499 12.3633 15.2499Z" fill="white"/>
</svg>
