<svg width="25" height="24" viewBox="0 0 25 24" fill="none" xmlns="http://www.w3.org/2000/svg">
<path d="M12.1816 21.65C11.8716 21.65 11.5716 21.61 11.3216 21.52C7.50164 20.21 1.43164 15.56 1.43164 8.69C1.43164 5.19 4.26164 2.35 7.74164 2.35C9.43164 2.35 11.0116 3.01 12.1816 4.19C13.3516 3.01 14.9316 2.35 16.6216 2.35C20.1016 2.35 22.9316 5.2 22.9316 8.69C22.9316 15.57 16.8616 20.21 13.0416 21.52C12.7916 21.61 12.4916 21.65 12.1816 21.65ZM7.74164 3.85C5.09164 3.85 2.93164 6.02 2.93164 8.69C2.93164 15.52 9.50164 19.32 11.8116 20.11C11.9916 20.17 12.3816 20.17 12.5616 20.11C14.8616 19.32 21.4416 15.53 21.4416 8.69C21.4416 6.02 19.2816 3.85 16.6316 3.85C15.1116 3.85 13.7016 4.56 12.7916 5.79C12.5116 6.17 11.8716 6.17 11.5916 5.79C10.6616 4.55 9.26164 3.85 7.74164 3.85Z" fill="white"/>
</svg>
