<svg width="25" height="24" viewBox="0 0 25 24" fill="none" xmlns="http://www.w3.org/2000/svg">
<path d="M12.3633 15.75C10.2933 15.75 8.61328 14.07 8.61328 12C8.61328 9.93 10.2933 8.25 12.3633 8.25C14.4333 8.25 16.1133 9.93 16.1133 12C16.1133 14.07 14.4333 15.75 12.3633 15.75ZM12.3633 9.75C11.1233 9.75 10.1133 10.76 10.1133 12C10.1133 13.24 11.1233 14.25 12.3633 14.25C13.6033 14.25 14.6133 13.24 14.6133 12C14.6133 10.76 13.6033 9.75 12.3633 9.75Z" fill="white"/>
<path d="M15.5733 22.19C15.3633 22.19 15.1533 22.16 14.9433 22.11C14.3233 21.94 13.8033 21.55 13.4733 21L13.3533 20.8C12.7633 19.78 11.9533 19.78 11.3633 20.8L11.2533 20.99C10.9233 21.55 10.4033 21.95 9.78328 22.11C9.15328 22.28 8.50328 22.19 7.95328 21.86L6.23328 20.87C5.62328 20.52 5.18328 19.95 4.99328 19.26C4.81328 18.57 4.90328 17.86 5.25328 17.25C5.54328 16.74 5.62328 16.28 5.45328 15.99C5.28328 15.7 4.85328 15.53 4.26328 15.53C2.80328 15.53 1.61328 14.34 1.61328 12.88V11.12C1.61328 9.66 2.80328 8.47 4.26328 8.47C4.85328 8.47 5.28328 8.3 5.45328 8.01C5.62328 7.72 5.55328 7.26 5.25328 6.75C4.90328 6.14 4.81328 5.42 4.99328 4.74C5.17328 4.05 5.61328 3.48 6.23328 3.13L7.96328 2.14C9.09328 1.47 10.5833 1.86 11.2633 3.01L11.3833 3.21C11.9733 4.23 12.7833 4.23 13.3733 3.21L13.4833 3.02C14.1633 1.86 15.6533 1.47 16.7933 2.15L18.5133 3.14C19.1233 3.49 19.5633 4.06 19.7533 4.75C19.9333 5.44 19.8433 6.15 19.4933 6.76C19.2033 7.27 19.1233 7.73 19.2933 8.02C19.4633 8.31 19.8933 8.48 20.4833 8.48C21.9433 8.48 23.1333 9.67 23.1333 11.13V12.89C23.1333 14.35 21.9433 15.54 20.4833 15.54C19.8933 15.54 19.4633 15.71 19.2933 16C19.1233 16.29 19.1933 16.75 19.4933 17.26C19.8433 17.87 19.9433 18.59 19.7533 19.27C19.5733 19.96 19.1333 20.53 18.5133 20.88L16.7833 21.87C16.4033 22.08 15.9933 22.19 15.5733 22.19ZM12.3633 18.49C13.2533 18.49 14.0833 19.05 14.6533 20.04L14.7633 20.23C14.8833 20.44 15.0833 20.59 15.3233 20.65C15.5633 20.71 15.8033 20.68 16.0033 20.56L17.7333 19.56C17.9933 19.41 18.1933 19.16 18.2733 18.86C18.3533 18.56 18.3133 18.25 18.1633 17.99C17.5933 17.01 17.5233 16 17.9633 15.23C18.4033 14.46 19.3133 14.02 20.4533 14.02C21.0933 14.02 21.6033 13.51 21.6033 12.87V11.11C21.6033 10.48 21.0933 9.96 20.4533 9.96C19.3133 9.96 18.4033 9.52 17.9633 8.75C17.5233 7.98 17.5933 6.97 18.1633 5.99C18.3133 5.73 18.3533 5.42 18.2733 5.12C18.1933 4.82 18.0033 4.58 17.7433 4.42L16.0133 3.43C15.5833 3.17 15.0133 3.32 14.7533 3.76L14.6433 3.95C14.0733 4.94 13.2433 5.5 12.3533 5.5C11.4633 5.5 10.6333 4.94 10.0633 3.95L9.95328 3.75C9.70328 3.33 9.14328 3.18 8.71328 3.43L6.98328 4.43C6.72328 4.58 6.52328 4.83 6.44328 5.13C6.36328 5.43 6.40328 5.74 6.55328 6C7.12328 6.98 7.19328 7.99 6.75328 8.76C6.31328 9.53 5.40328 9.97 4.26328 9.97C3.62328 9.97 3.11328 10.48 3.11328 11.12V12.88C3.11328 13.51 3.62328 14.03 4.26328 14.03C5.40328 14.03 6.31328 14.47 6.75328 15.24C7.19328 16.01 7.12328 17.02 6.55328 18C6.40328 18.26 6.36328 18.57 6.44328 18.87C6.52328 19.17 6.71328 19.41 6.97328 19.57L8.70328 20.56C8.91328 20.69 9.16328 20.72 9.39328 20.66C9.63328 20.6 9.83328 20.44 9.96328 20.23L10.0733 20.04C10.6433 19.06 11.4733 18.49 12.3633 18.49Z" fill="white"/>
</svg>
